<mxfile host="app.diagrams.net" modified="2022-12-15T19:12:25.773Z" agent="5.0 (Windows NT 10.0; Win64; x64) AppleWebKit/537.36 (KHTML, like Gecko) Chrome/108.0.0.0 Safari/537.36 Edg/108.0.1462.46" version="20.7.3" etag="giOlm3jLTck6kAJ2x1tz" type="github">
  <diagram id="djRamecMKjzoYUtvP7_y" name="第 1 页">
    <mxGraphModel dx="1004" dy="1658" grid="1" gridSize="10" guides="1" tooltips="1" connect="1" arrows="1" fold="1" page="1" pageScale="1" pageWidth="850" pageHeight="1100" math="0" shadow="0">
      <root>
        <mxCell id="0" />
        <mxCell id="1" parent="0" />
        <mxCell id="H-xdJEBKWoVuhTq_jzJ3-41" value="" style="rounded=0;whiteSpace=wrap;html=1;strokeColor=none;fontSize=14;fontColor=#FFFFFF;fillColor=none;" vertex="1" parent="1">
          <mxGeometry y="-40" width="1160" height="600" as="geometry" />
        </mxCell>
        <mxCell id="H-xdJEBKWoVuhTq_jzJ3-19" value="" style="rounded=1;whiteSpace=wrap;html=1;fillColor=#FFFFFF;strokeColor=#6c8ebf;" vertex="1" parent="1">
          <mxGeometry x="520" y="280" width="320" height="200" as="geometry" />
        </mxCell>
        <mxCell id="H-xdJEBKWoVuhTq_jzJ3-14" value="" style="rounded=1;whiteSpace=wrap;html=1;fillColor=#FFFFFF;strokeColor=#6c8ebf;" vertex="1" parent="1">
          <mxGeometry x="520" y="10" width="320" height="240" as="geometry" />
        </mxCell>
        <mxCell id="H-xdJEBKWoVuhTq_jzJ3-1" value="" style="shape=image;verticalLabelPosition=bottom;labelBackgroundColor=default;verticalAlign=top;aspect=fixed;imageAspect=0;image=data:image/png,iVBORw0KGgoAAAANSUhEUgAAA+gAAAJCCAYAAABTU+3YAAAAAXNSR0IArs4c6QAAAARnQU1BAACxjwv8YQUAAAAJcEhZcwAADsMAAA7DAcdvqGQAAIeHSURBVHhe7d0HgBTV/cDx3+7dcY16R+8gTVDBhiJqVGwo2BsqRlMgsQZj1Gj01KiJxkj0bwnEBJUoisYG9l4QBcWCVOlIPa5wwPW7/c9vCrccd1y/fTv7/STj7ryZnZ3dt/fY3773fhMQkZDFugEAAAAAAJESdG8BAAAAAEAEBTMyMty7AAAAAAAgUgKMbwcAAAAAIPIY4g4AAAAAgAHirOWO4447zlkDAAAAAAARQRZ3AAAAAAAMwBB3AAAAAAAMQBZ3AAAAAAAMQBZ3AAAAAAAMwBB3AAAAAAAMQBZ3AAAAAAAMQBZ3AAAAAAAMwBB3AAAAAAAMQBZ3AAAAAAAMQBZ3AAAAAAAMwBB3AAAAAAAMQBZ3AAAAAAAMQBZ3AAAAAAAMwBB3AAAAAAAMQBZ3AAAAAAAMQBZ3AAAAAAAMwBB3AAAAAAAMQBZ3AAAAAAAMQBZ3AAAAAAAMwBB3AAAAAAAMQBZ3AAAAAAAMQBZ3AAAAAAAMwBB3AAAAAAAMQBZ3AAAAAAAMQBZ3AAAAAAAMwBB3AAAAAAAMQBZ3AAAAAAAMQBZ3AAAAAAAMwBB3AAAAAAAMQBZ3AAAAAAAMQBZ3AAAAAAAMwBB3AAAAAAAMQBZ3AAAAAAAMQBZ3AAAAAAAMwBB3AAAAAAAMQBZ3AAAAAAAMQBZ3AAAAAAAMwBB3AAAAAAAMQBZ3AAAAAAAMQBZ31FKZtcRJKFRiLUHrgxMngaBIeaBUghLv7LJP5SKhgLXo/0ut/yRIQDMgALXC5w8AAAD+xxB31FJIykPF8tX8MrnqhvXyr+mZsiO/uJbBkT46KKHyQnnhtVy58g/b5O0PM6W01AqUgFrh8wcAAAD/I4s7aikgxSVBueiyjbJ0eVC+mFcqBx7QQvbr3cLdvm/lVoi0cGmcXPW7tbJmdYq89V6xjD49QdLb1O7xiHV8/gAAAOB/wTvvvNO9C+xDKCCl5aWSn18xI6K4WH/fKXdWahBnBVh5O3dJWTBVyuJyJa4sSUryGcCBWuLzBwAAgBhg96BbnDXEJp2Xqxfcs7g3dpkE9D/2HSkPlEkL69PSs3uCbN5aKiNHJsq485MkqUWC/SANk+zHevFTwCvRgmLrJl66drHWS0UKi+Ll0ksT5MRjUyUYR5AU86yPCJ8/AAAAwPoGm5GRESJAj21lVtQS1ORbkmAFSm7AEiqXOPt+UDSNYKm1BK09A7oSLLEiongruLGCI4uGQsHyUikNxNuBUch6bHyg1AqPWljHCUiZtZRbsVFQY6XyAgkGWkhZXKHES6r9eMQ2Pn8AAACAgyzusIIYkRLZIddeXSCLl5ZIamq5TH8mTdJbWgGMFfAUFgTl5xN/kKQW7eS3k9Ll8IFWYBQfZw+/UGVWiLRzZ1DOH7dWCotEenQLyVP/6ibx8dZ+1rE3bdshl/86Uw4f3kp+PbGd9GoTr/GVFXABFj5/AAAAgI3vqJCQFQStWddKPvk6TzJzQtKtZ4m00s5Fe4RwUJasLZGFy1rIl98Wyq8vy5Z7/7peyov0sleOuLKAPDZ1g6zfILItq0yuuDxN4uI0u7b2apbKo1N2ympr24svlMkF566UL77fJUESaMPF5w8AAABw2HPQyeIe28pLyuV3N6yUnzYlSYu4Uvn3Y72kbWqiFRuVSSAQlNztpdK/fxvZvL5IMrOCsmxFoRx4cLz07p5kP357foncnlEgBSUl0r9PsvxxUhsJBq2PlvXYUFlQystKpU+flrJi6Q7Zvite5szJlzPPSJGUZK8PFLGMzx8AAADgIIt7TNPZu2WyeWu5LFmcIiHrf0eNSJSuHcrsn24C7iDiQX1byCVnJMnT/2knffoGpagsIE/+p9SeO1wWKpf3PyiQrPxdIqEEOf/MFCnXqcHa+2mJsw5x8qjWcu2vWsuDf2tlBU4Bycopk2Vrcp0dEMP4/AEAAADhGOIe40pLAvLf53OloKRIWoQCcvZZyfb83nCBQEDKraK2rRLl6KM1aVeqzFuQLeUl8VKwKyQPPLZN4kpTJb1VgYw5O8kKqzRCqsT6pB12ZFC6preQQHlAvvjUiqdIfxDz+PwBAAAAFYIZGRnuXfiSHYNoT2WhHZBor2O5u0h5UDZsLZCnns+T8lCCDB4scvyxSda2kt377N5Xj2I9fus2K8AJlkibtomSECyXz77cKbmZQSmOL5BLx6dJa3vYcLH1GOd/+oy66GMLdrWTnLyd1tMGpGOXFDvwgs/x+QMAAABqjSzuPqchSqg8X9auLZWi0kQp12tLh9weykCJzHojV6Y9FZBAWZn8/W+pcsShyZKzNV6K4zSosnfSrkYpt2KkN9/Ml2nPb5NyK7D6/bVt5OeXtpTLr9ggCxYFJM7a7c0Xe9oJvwoK4+3rVqugBlfW/ezMeJn2763y2TchiYuPk1mvpElfK0iCv/H5AwAAAGqPAN3vrOrdkrVLxpyZLbvyrcBIAySnW9MOZgIhJ5hp16pMXnuxm9x8W6bM/VKDGnsXO5jSnsZQqETK7B7HkBXYiDz/TFf5YWmh/PK3OVIWVypnnpImE3+dKOMuzpSCAu27dIKwgAZj1vOUa69msIXEW+dz5lkBuevmrhKf4AZq8C8+fwAAAECtBe+44w73LvwpIK+91ULyikulPL7IClKsWyvO0UW3BaREAsF8ufnW9rJiTZ7M+SpPQkENZsqcJa5YyoJFUppQIKmJSXLEQSIvvNxZEtuIPP3UTmt7qSS3CMl11ybJ8zOyZWdhsRV4hexyXcqs5yyLKxFNqt0uNSjjL0yRjJu7SyDBCsIQA/j8AQAAALVld0nRie5fWrPrVooU2AHRnq69bqus3rJLWqfGy4evpUlxabJsywrafY9lldIHxlsHSm1VJm3TQpIcDMnmLQky+tzVUlCUIAcdmCTPPd5W1ubGS8lOa2frsU4AViEhXqR1mzLp0FITfoWsD17QDs/gb3z+AAAAgNrTb6gE6DHFqmsrevniqxL55ZXrpay8hZx/hsifb+sqElcpKqqC/UkpF5l000Z568MSibdWZjzZUw48QOcMV5E9G9gDnz8AAACgOmRxjzHad1haXii337fWCm2C0qZNqdx8Q3cJ1SI4UgHrUZtyRObMKZNQoEwOOyhRhuwfJ2V2cOQl9gKqxucPAAAAqB5z0GNKyPp/mazYWCwbNgSlLJQgxxyRLEnJZfZQitrQDNovv75JdhYXS1xZCznjrGR7fq8OS7bHFgPV4vMHAAAA7AvfaGOGJsUKiF58avIDeVJeEifB8pBcclmSxMU54U1t5OQVy7/+r8TOwN2tq8iYU9u5W4B94fMHAAAA1IQe9BhRLiV27+WSJSUy99NSK8AROfnkFjJkUJK7x77phar0/2+8lS/FZVawFUqQib9sJS2Y9ota4PMHAAAA1Cx45513unfhb8lWUCMy+92dUhTQ1FoJcvaZiZIQSHS375tmvd5ZUigvvJRvPTZZWiUGZORI67G1HZuMGMfnDwAAAKgJQ9xjRFCKZPv2cpnxTK4khMqle4dCGTG8jTvouGYBKZZ33t4py1aWSakVFF3x67bSuX28xlxAjfj8AQAAADULZGRkhBjmHgPKRXJ2FsmKH+MkGL9TOncMSNfOrSUQqF0XpBVTyZqfSmTbtnIJxZfLoH4haZ2S4m4FasDnDwAAAKhRgIugxwit5kBIQrsHTegFr2o/PjikEZb12No/AgjD5w8AAACoEQE6AAAAAAAG0Osb3XHcccc5awAAAAAAICJ0xCid6AAAAAAARBhZ3AEAAAAAMEAwIyPDvQsAAAAAACKFJHEAAAAAABiAIe4AAAAAABiALO4AAAAAABiALO5NYEt2vsxfukWWrMmx7u+SopIydwtMk5gQJ53SUmX/3u3k8EGdrPsp7pboVbRro+Rt+FR2bfvWvl9eWuhugWmC8UmSmNpVUtsPk9bdjrHvAwAAIHYRoDeyFz9cIV8s2iQH9OsivbulSfu2qZLYIt7dCtMUFZfKttxdsmZDtvywYpMcOaSLnHd8P3dr9NmyZJrk/vShtO00TFql9bUCvg4SZwWBMFNZaaEU7cqUHdmrJHfLt9K2+/HSaf8r3K0AAACINYGMjIzQHXfc4a6ivrbvLJKpry2SNq1T5KihfQjKo5AG659/t1q25+XLhDOGSJuWie4W85UW5shPC+6XxOQ20rH3MQTlUUiD9a1rPpWigu3S/ZAbJT6pnbsFAAAAsYIs7o3kb88ukK6d2snwA3q6JYhW835YJxu35MgfLj7ELTHfms//KC3bdJP2PUe4JYhW29bNlZ3bN0jvo/7ilgAAACBWkMW9Eeiwdu05Jzj3B61HrU+t12igw9q155zg3B+0HrU+tV4BAAAQW4IMb28YTQinc851WDv8Q+tT61Xr12SaBE7nnOuwdviH1qfWq9YvAAAAYkfwzjvvdO+iPjRbuyaEY865v2h9ar1q/ZpMs7VrQjjmnPuL1qfWq9YvAAAAYgdD3BtIL6Wm2drhP1qvWr8m00upabZ2+I/Wq9YvAAAAYkcwIyPDvYv60Ouc66XU4D9ar1q/JtMh0HopNfiP1itD3AEAAGILc9AbqKikjOHtPqX1qvVrsvLSQoa3+5TWq9YvAAAAYgdD3AEAAAAAMAA96AAAAAAAGIAs7gAAAAAAGIAh7gAAAAAAGIAs7gAAAAAAGIA56AAAAAAAGIAh7gAAAAAAGIAedEhuTpZM+s0lsnrlMrekbvTxvxx3miyY97lb0rgeffBue0FseWbmm/Kb390rBQVFsuzHtXLKWVfbtwAAAIBfkcUdDda2Xbr8e8Ybcsjwo9wSoHEN7N9L3n7lEfsWAAAA8CuGuEeh1/737O5e5QGd4+0lvPday5+f/i85Y9Qh9qI944WFBXL7jVfu3l/va5n2fv/+yvHy+ivPyykjh9jH0eNPm/IPu1fcO3blx+ui+6nKPej6/OGP947hqe5cPHq+et66TY+xZfNGdwv8Jit7u5x69jUSaH2Yvfz5vifcLXsK70HXZdwvbpFXX/94j8dp+bCRF9vrekw9NgAAABBNyOIepR66/w7p0auvLN9cKm/PWSR3/PHqPYLgd954WZ5+8V157f0F0qVbT7n39t/LYUccbe+vS6fOXeXfj/3d7v3++2PT5fSzLrSP4/WCvzzzafnT3ZPtfQcfdLD9eH2M9/gHHn1annjsgWqHxYc/Xvd9dPLddiCvgXh156L0eNdNGCd3/OURe9tVk/4kzz091d4Gf9Gh67fe9aiMH3eahPK+kvwtc2TDpq320PaaLFm2Rr7/4Uf7cUu//p/877UP5LobH5D3Zz1uH6d3ry7y1ntNM+UCAAAAaCrMQY9SF102QU4+/Wz7fp/9Bsopp58jcz/7wF5Xhxx+lB18q8Xff2PfevurS674raxYvqTaAHvYoUfagb1KSkqWu+5/TK66/k/2ujpw2KHSvkMnd21vej56Xkr3DYVCkpO9rcZzWfjt1/Zz648CSn8wuO5GPqOxIDk5Uf75j1vkkgtGuyXV69QhTS445yT7fs/uneXIww+wA/30tDb2cY456mBZtXqDvR0AAACIFgxxj1La66yBs0d703UoePhQcc9P69fYvdAH9W61e1j58P07ycofl7h71J43rF6Hw2/L3OKW1l5N57J+7aoqXxv8RwPp8RedLpf+6jZ7WLqXEK6+evfs6t4DAAAAohM96DFCe9y/X7Nj97ByXXT4u9fLXRMvMNcfAfQ4Ohx+Xz3o+9LQc4F/jDxy6O5h6l/M/0FSOo2sdh46AAAA4HdkcY9SlXvLq+p59nTv0Vs2rF8jhQX5bknd6NxxHYKuQbkOda/qOWqrpnOpaiSAvjb4m2Zn/3bOs/LZO/+WOV98R4I3AAAAxCSGuEcpHSbuzefWudtfz5sjp515vr1emc7n7mYFxs9Me9wtETuhnGZI1+C7NvK250hOlrOvPubuP02q1xD3ms7l2BNOsQN477XpNk2IB//R4ew6rD08KdwHH8+3e9V1LjkAAAAQa8jiHqU06/r0/zy6ez741dffVu0Qce3xvv6Pf5YF8z/fPe9bs6pr9nZNJKdLvwH728fxLp0WTrdrNvWLzjjWfuxl551kr3fo2NlO6lYXtTkXzf6uWel12ysv/ld+deUN7qNjz7vvviuFhYXumr/oHPRJV10if3to+u7LpWkW9xuuHe/uAQAAAMSWQEjTa6Perpn8kVx78THuWvPQIPqrLz+TW+76e4OGm6NmDz/7qfzfpOPcteZ39dVXS3l5uZx00kkyevRoq76T3C2OJW9eKPsffaO7Br9Z8tn9sv/o5901AAAA+B1D3AGDnXPOORIMBuW9996TG264QV5++WXf9qgDAAAAsY4s7oDBTjjhBElISJCysjIpKSkhUAcAAAB8LGAtjHJvgEgMcUfz0SHuxUtnuGvmiIuLk4MOOkh+1utDhrj7GEPcAQAAYgsBegMRoPtbpOegq+uvv17y8/P1D1Xi4+MlEAjIqFGj7Dnpqz/8OQG6jxGgAwAAxBayuAMGe//996W4uNjuMdeh7ieeeKI88MADcvbZZ++VMA4AAABAdGMOOmAwnWuuWdwJzAEAAAD/I4s7Gmz1ymXyi4tG27c1yc3Jkl+OO00WzPvcLcG+nHnmmfLggw8SmO/Dsh/XyilnXW3f1iQre7ucevY1MueL79wSAAAAwBz0oAMG0+ufE5gDAAAAsSF45513unfhV9prPek3l8h7b70mZ4w6RAZ0jpfbb7xSNm/6ye7N1nUtD+8B1x5uLa9qm3r0wbt3b3/hmWluaYXX/vfsPh+P2KG91uN+cYu8+vrHMmzkxRJofZj85nf3yk8bttq92bqu5eE94NrDreVVbVN/vu+J3dv//fSrbmmFZ2a+uc/HAwAAACZiiHuMyNueI5988JbMfH2OzFuyRTasXyMTLj1D/nT3ZFm+uVROOf0ceePVF+x9NTi/449Xy9tzFtnb7vjLI3LdhHG7g2wNzrds3ijfr9lhLzt35sm2zC32NqXB+VdffmZv8x5/958m2T8UIDbl5OyQN9+dI3Pfmybb1rwva9ZukjEX/E4euv8GCeV9JeeecYLMfOlde18Nzq/6/X2y9Ov/2dse/ftNcuHlf9wdZGtwvmHTVsnfMsde8nbslC2Z2fY2pcH5p59/Y2/zHn/djQ/YPxQAAAAAJiOLeww567xLJSkpWdq2S5dDDj/KDsr77DfQ3jbi6BPsoHt7bra88uJ/5VdX3rB72yHDnX01gNcge8H8z3cfS5crJl4n7Tt0svfV7R+++7pdptuUPl6f75MP3rbXEZvGX3S6JCcnSnpaGxl55FA7KB/Yv5e97YSfHW4H3dk5eTL9udflD9eN373N21cDeA2yNYD3jqXLpKsukU4d0ux9dfvstz61y3Sb0sfr8tZ75D0AAACA2ZiDHsN69Orr3qtQUFBg965379HbLXF4++Zkb7Ovx90uPd1eV+3S2kubtk6ApNtX/rhEThk5ZPcQd10eup/PGfbUt083916FgoJCu3e9d8+ubonD23dbVq79+Wuf3tZeV3o/La21fV+3L1m2RgYdeu7uIe663H7PP+3tAAAAgMkY4o5Gp73p3vD48OWMcy929wCajvame8Pjw5dLLhjt7gG/C5WXuvdEdqx4Rja+f75sfGes5Hx9t2TOvUGWPhGwF70vOzfZC+Vml697Y5Tkfv+gSH6mSGGO5C5+RLK+uVt2rH1ZQmWFbm0DABD96EHHHpKTk6Vbj97y0/o1bolj/dpV9q32lgcCAcnJqphPrr3mOjReVbUdqK3k5CTp3auLrFm30S1xrFq9wb7V3nL9fGlPuUfvZ2fn2fer2o4YEQpJzpLHZcunv5asL28UyVomsmmBJAVaS9vOp0iHgVdKuy4nS4fe42TQ6V/Zi96XHdZnzVooN7u858H3S9v2x4hsX2f9o7NKWoQSre0/Sf6PM2TH0mkiJfnuBwEAgOhGFnfsITEp2Z5f/sRjD+xOCqdJ495+/SU57czz7fnrZ1rbdZ56YWGBvUyb8tDuJHHe9kcn3707KZzecu1z1EZyUqI9v/xvD03fnRRO55z/77UP5IJzTrLnr4+3Pks6T72goMheJj/6zO4kcd52TSTnJYXTW6597n95S/4pxRs/kaSkXtKu6zkixTut0pAkpHSVlLSDJaFFR5FAnLMzolOgYtBfStohkt7/19JpyE3Sut1hItuWWMtS2frZRMn8+g4pL85x9wQAILowxB170aRumnndm0euGd0fmjpjd9I4HareqXNXOah3K3sZcuDBu5PEKd2uSeGG79/JfrzeXjXpT/ZxgZpoQjfNvO7NI9eM7s8/+ZfdSeN0qHq3Lh0lpdNIezlk6KDdSeKUbtdjtO89yn683t5206/sMvjLzrWviuzaKrL1eytIGy6dBt8gbbqPlrgWToJKxAgvcC/ZJW06/ExC21fKxg/GSXHOIqccAIAoEsjIyAgxzL3+rpn8kVx78THuGvzm4Wc/lf+bdJy7Zp4lb14o+x99o7sGv1ny2f2y/+jn3TV4CjLnSe6iRyRYWiJpfcdLQnLFD4SAKs7fIC3aDBBp1VUk0UkiCQBANGAOOgAgquSveVkSEztJpyE3EJyjSi1Sutk96pL9o2TN+6PkLp3ibgEAwGwMcQcARI/c1ZLe/TxJ632RWwDsW0rLAbJrzeuS/d1f3BIAAMxFDzoAwHhZ39wp+cufFSlwEgICtZXc7iDpNPhaCe3K0mvwuaUAAJiJLO4AAKNlf3u3lGxbJIlJPd0SoG7iE9pJep9x1odphVsCAICZGOIOADBW8fblUpS5QNr3+7nEJZCdHQ1UvENKN38p+RvedQsAADBLMCMjw70LAIBZWsS1ko4DrpL4pM5uCdAwJdlLJPu7+6Vg0xy3BAAAczAHHQBgpqI8kR0bJa5FW7cAaLjkdgdKapuhkruMzO4AAPMwxL2BEhPipKi41F2Dn2i9av2aLBifJGWlhe4a/ETrVes3VuUsfkSyv7nHXYsR2bki468T+XG1s/7cayJX/UmkoIn/xu/5P2epfN/H2vUdJ607Hu+uAQBgDnrQG6hTWqpsy93lrsFPtF61fk2WmNpVinZlumvwE61Xrd9YVJa/VQrWvy3JbYe4JTHqojNEHr1bJLkZf6i59RpniQGp7Q4S2bXVXQMAwAxkcW+g/Xu3kzUbuOyPH2m9av2aLLX9MNmRvcpdg59ovWr9xqL8Te9JQlIHSW4ToQBde5C7HuYs/37O6cWeu6BiW3gPs/Z2n/7zil5vvR0+tuLxej98m/aQP/yfiu1eD7n2nl/2O5H354j87Hzn+cJ70PW+95jwxTsvffyYyyvK69sLHv769Dn/+FfnHLzjalm48PMKf62qpvdCj62Lbqvv+TbUrs1SlPWNuwIAQOQxxL2BDh/USX5YsYlh7j6j9an1qvVrstbdjpHcLd8yzN1ntD61XrV+Y1GrLidJet/L3LVmpgHn3K9FfnhPZONXIpszRV5+y91YAw06L7lW5KE7nceu/Mz6R2KoyD/+XTFMfdkqkR27nO36HGt/Enn1HZG0tiJP/0Nk1EiRj18QGXGIs79He9P1Md5y1c9Fzj5VZNjgiuD+Vuu5vefduGXvYLo+nnpR5NJznOP+b6rIg/+qCLL1+J/Oc5/P2q6ve5K16PnU5r3QHyOGWuev2yPUa1+0fYls+4pkuQAAc5DFvYE6paXIkUO6yOffuV9Y4Atan1qvWr8m0yHQbbsfL1vXfOqWwA+0PrVeY3WIu+RnSTC+lbvSjDRw1IBTA1INmNUFY0S6d3Hu16R/H5F5syqCax2afsxw576nQ5pzTKXPMeJQK3hd66zXlvaa648If77BeY53PnGOE/68v/ulyOvvO8FyQ3g/AqiBfUU6potsy3GOq8fX5/GG4Ovz63no+dT2vTj0QHclMhJb9pNgIEnyfnzaLQEAILKYg94Izju+n2zPy5d5P6xzSxDNtB61PrVeo0Gn/a+QooLtsm3dXLcE0UzrUetT6zUW7Vo7S8rzN7lrzUwDdO3R7tXdLbBocK49v3URPtz8+rvcwkaiPdPXZTi95d6PCBrgP/pUxVByXXSYfM52Z3tTyLKCdB0NoM8T/rx6HuGa8r1oJC3bHyKh0gJ3DQCAyGKIeyOZcMYQ2bglRz6c/yPD3aOU1pvWn9aj1mc06X7IjbJz+wbZtOJdhrtHKa03rT+tR63PWFRalCvZPzwsIUlwS6KMF4wecGLFsPAHb3c3NgI9vg4hv/7XFT3THh3yrs8Xvsx+siKIbwraA67D8Ss/rw7Hb+r3ohHplIo2PaxzBgDAAPSgN5I2LRPlDxcfImmp8fLkq/NkzjerZcPW7QTrhtP60XrS+tJ60/rTetT6jCbxSe2k91F/kWBSJ1nx1RTZsvpjyd++nmDdcFo/Wk9aX1pvWn9aj1qfsahgy6eSkNhW4hKSnYLmpsOwtfdce9E9Xq96bWiPsj5e51trkNrYHp/uHP/Mk90C1369rAB4S8Xc7uaQbn1GAwFnuHtVmvq9aGx6zX0AAAxg/esqIYuzhkaxJTtf5i/dIkvW5Fj3d0lRSZm7BabR65zrpdQ0W7smhDN9znltFO3aKHkbPpVd276175f7JEgv3FQuRZtDktg5IEld/DH4R69zrvPMNVu7JoSL2TnnrryVMySUtVza9HDnaEeCzu++52EnYZv2Pmt2cR22rQnStNdaE6P996U9t2uSt2esx2iwGv5YPda5E5x53A/8SeSnTSK/u0PkH9aic7SVl71ck6Rpr7MOX7/9d852LwmbPlafI/x5w+njNEmc9lR7wXD4Y7054tUJP4fw+5WP4T2PDq+v6r0I367q+l5EUGHecgm17izJXbg2OgAgsgjQUWuzZs2S2bNny5gxY2Ts2LFuKdA8Vr7wvKyY+Zzsd/6F0u+Ci9xS+IrOA85c7K5EkAae3nxpDSi1B90LSrWX+oa7KzK7T/mryMxZFUG1F9Arfew5o51LiWkAr/YVoCvv8d5wcA2QNRncbQ9UnU1e99Og3MuaroGv8gLhmoJzVd8AXYW/XuX9kKHCt9XmvYig3HUvS1FJpnQ6eopbAgBAZAQyMjJCDHNHbTRFgP73v/9diouL5dxzz5UBAwa4pcDeCNBjQGGOSI5h1/WvKiiF7xTkLpDcze9Ll+Ofc0sAAIgM5qAjonT0xpo1aySgcxkBxLQda1+V8jLyJqD5JbYcIC1a8SMxACDyyOIOIxCgA7EpJydHSkudZJp5a16SYFycfR+NRIeZh18GrfKiw9ghwfiWkj7oSncNAIDIoQcdEVVeXm7fEqADsWHTpk32dJl77rlHJk6cKDfffLPs2LHD3ua0AoZdYk0TnOnlyqJ1eLvOJa98GbTwJRoyrDcb8vEAACIveOedd7p3gcghQEdN2g0eYs8/TxtygFuCaKMBuf4orLks1q1bZ5d1795d8vKcS1wldzxapIyrXiACQmWSteghdwUAgMhhiDsiiisIoLY0MNfkcATo5tu1a5d7b0/Dhg2TPn36yGmnnSZXXXWV3HfffXLbbbdJr1697O3tBl4hwhB3REBxyTYpyDXgCgIAgJgXzMjIcO8Czc8L0OlBB6Jbbm6uzJkzR6ZMmSI//PCDW7qn3/72t/aQ9jPPPFMOOuggadu20vW8g/HuHaB5le7cIMG4RHcNAIDIYQ46IooAHYheZWVl8t1338m0adPsnvCnn35aFixYIIsWLXL3qJvta1+Sguxv3LVmpInUvOt/m2zuApGr/uRci101x3nrZebGXO48t4qW96qOEpK7SJv+P3fXAACIHIa4wwgE6ED0+eKLL+Sxxx6zb4uLi6VTp04yZswYufjii9096qascKvsypznrqFGmgBOl+YUiedsBgnJXSW11xh3DQCAyKEHHRFFDzoQvY488kjp0aOHHH/88XLttdfKXXfdJWPHjpWkpCR3j7qJb9lbSktz3LUm9ONqkeFjncuMae/wxi3uBpf2FodfiszrPVbae6292N62We+JjL/OOWbl3mallzEL7/UOf25d9L6Wedv0WA//p2K791g95rkTRF5+S+T83zjP5fVmVz4nb9Fz0f3Uvl5TXYT3oOutnqs+T1XHrXxe4e+DqnxO4eer71v4set7vrXVItW9AwBAZJHFHRFFgI7ayl70g6yY+Zx9i+aj2dZffvll+/JolcXFxckNN9wgF110kQwZMsQtrb+Wvc6SpI5HSqi8CTO5axB8ybUiD1n/9ullxm617mvQ69FA8J6HRX6wAm/d/vELInc/VBFEP/gv53blZ87y1kciy1Y5ZTWp/Nz6+MOHivzj3xWBqx5rxy5nu57D2p9EXn3Huczb/6aKnH2qyAv/dC7/5klOEnn0bucx3uMOOUDk0nOc/Wp6TQ3x35dFJmc4x33wdud5NMjW13ODdU7HDK84r66dKt4/PafrrMfpuXjnrB6f7tyq8GM34WXuyksKZOviv1ufO+d6/AAARBJD3AFEBQ3MV77wPAF6M/nmm2/kiSeesK9X/tZbb8m8eVUPPa9vb3lVgvHJ0nb/30og2ISZ3L9e6ATFwwY76xr4XeXOPdag8r8vOUG7FwD37yMy/lyRmbOdwHPu107gq0GxLnq/tvRY82ZVBJv6eA1gw3VIE7nAHWqt5zDiUCuQX+us15YGufo4vcZ5Ta+poc482TmeOvRA/dVVJCtH5Fs3I7pu9/x2vMjSFc4PA/oe6HvhPdZ7reG0nrp3cVeazo6tH0rI+joUIEkhAMAAZHFHRJWXl9u39KADZpg1a5ad8O2f//ynzJ8/X9q3by+jR4+2h7M3i4QUa2nC4cYa7GpPrgbHnv2cy7zZwaz2WOtQ8vCh19ff5WzXwFMD0PbtnHU1sK+z1IUG+t7Qbe/YjUWHhuuPCBoMq5peU1PR59SRCfsdXfGcB5y492gDDda9If+PPuUWNq/C3MWS3HmEuwYAQGQxBx1GIEAHzDB8+HDZunWrfRm0yy67TP785z/LWWedZSeAay6ZPz4uhTtXuGsRoEPJvWHZ3tIYidG8wFwDVe151+PqsPDGosPGdQi5Dgv3ess9TfWa9kWH4+sw/vDn9HrNvcD8Z+dXDPn3RjI0s5Z9zpHW/S5z1wAAiCyGuCOi6EEHImPVqqrnTWsg/oc//EGuuuoqGTlypASDzf/PRFxSe8lb/4a71si0t1yTwmnPsscbQq696r26O72/VUlvp42VyLawRHbaq+4lNquJ9h7r8TVo1eHnjUnPQed/X//rimHjqqbX1FS85wx/n8PpVAMd/q6BeRPOL69RXIKk7ne+U68AABiAHnQYgQAdaHr6g5gOW586darcd999kpmZ6W7ZU79+/dx7kdFm0AQpKdoiJfkb3JJGdPKxTuDozZHWXmdvaLU3p1x7ob0EahpgavZxHTquvdK6Xed0a7kumuAtM9vZ1wuGP5jjrGvQrPuGCw9a9bkbY6i5Hu+2ByrmnYer6TU1FZ3jr+9FeNI3fb3hmdrDfyjRc2nmIe6lhRtFUju7awAAmIEs7ogoL4s7UJO0IQfIfudfaN+ibrZt2yZvvPGG6A+ymvjt66+/lnbt2tnXLzdRXHInaX/EA5LQZoBb0og0yNYh4JpBXOc9awD98/PcjRbtzdVeaB16rdt1DrUmcvMCX73VOexarkvrlk5iN6XB8O9+6WRd18de9juRiZc625QeW4NoHeLuPff0h0Tmfyfy095Z8veic901wNdz84JtpY/VY2iAq8f1Fu8SbjW9pqag78Wfb3Dmw3vnoz38T//DqQMveZw3R11HMehwf92/tiMSGmjbqv9K3qa33TUAAMyg3ZZWjESQhJpp8qjZs2fLmDFj7GsdNwZNUrh582b7+snNOccViCXPPPOMfPLJJ/b9nj172gnfjj76aElMTLTLjFWUZwVrP7orhtIA+Hd3iPzDWsKHlsNo2SunSVHxNulywnNuCQAAZiCLOyKKH4eApnfEEUfY1ym/4oor5NZbb5VRo0aZH5yrxNaSs+l1KchZ6BYAjSOY2kXaHvR7dw0AAHMwBx1GiEQiKsBP8vLy5KOPPnLX9qRzyq+99trmu1RaY0rqIDnr/ielxe48bzQeby66NwS9qkXnjftNcpq0PfhWSW5/uFsAAIA5iIoQUV4WdwD1s2bNGnnppZfspG8zZsyQlStXulv8od3g30pSlxGSs/51CZWXuaUG0WHtrz8VncPbdZ74o3c7mdSrWyKZYb2RlZcUys7sb0TaMhUBAGAuetABIAp9+eWX8vDDD8tf/vIXefvtt+1EcEOHDpX8/Hx3D/9IG3qLtB/xVwkkVbq2N1BLpYWbZeuyyVJQuM4tAQDATGRxhxEY4o6aZC/6QVbMfM6+hUhxcbEsWrTIvn/44YfLpEmT5Morr5QDDzzQLvObQFySSPoAKU9IYk466qSsOFe2rX5W4tOGSYdDG+GydgAANCGiIkQUQ9xRWxqYr3zheQJ01zHHHGMvf/jDH+RXv/qVDBo0yN3ib4VFGyVrzTP2vHSgNuLSB0vaoRnS/tA/uSUAAJiLLO4wAj3owN6WLl0q06dPd9f2dumll9oJ4GJJSreTpN2wP0ixFajvyqUnHVXLz14gOWtniqT1F2nZRVo0xTX1AQBoAsxBR0TRgw7sbeHChfLoo4/K5MmT5bPPPrMDdVRI7XqydDr2SUnd/3KR1j1E4hKkcMcKdytiWVnJDslc/phkr39FylM62pfqAwAgmtBtCSMEAgH3HhC7vMD8kUceke+//94uO+igg6SkpMS+jyqkdpSiuHLJXPOMbP7hPtmx6V13A2JFeUm+lORvFElIlbj2QySpx0nS5bjpks51zgEAUYgedERUKBSybwnQAZH58+fbgXl8fLx9zfLrrrtOrrrqKt8mfmssienDpMfJr0lKnzFSGt9CpFVXkRYtpShvueSueVEKti+TsuI8d29Eq1CoWMrLC9w1kR0b35Uti+6XDQvvlKLQDpH2g0RSOkirvhdJXFKauxcAANEl7uOPP7ZidIJ01Gz58uX2MmDAABk4cKBb2jDvvvuuFBUVycknnyyJiYluKVC15A4dJW3IAZLcsaNb4i9t2rSRVq1ayUUXXSTHHnusdOjQwd2C2khMGyrJnUZYwXkrK1BrLyWhfNmVOUeKchdKUfFWSe1+irVTK8la9bSs+3S8bPtxqoTiEyS15+mUG16eveJJ2Zn5hUhCkiR1O16kVRcplUJJaDtEOhzyB2nR/nD3UwAAQHTTbsuQ14sJ7MusWbNk9uzZMmbMGBk7dqxb2jCagTovL08eeOABOzAB/O7rr7+WJUuW2AneAAAAgHBkcUdE8eMQYoHOIddkb/pD1NSpU+XTTz+VtWvXulsBAAAAB3PQYQTmoMOPdHTIW2+9JXfeead9ubQff/zRvqTg8OHDZdeuXe5eAAAAgIMs7ogoksTBz1q3bi0FBQWSmZkp3bt3l9NOO80O1n/5y1/K4MGD3b0AAAAABz3oiCgCdPhFbm6ue29PmuxNA/I//elPcuaZZ0pHnya4AwAAQMMFtTcHiBQCdNRW9qIfZMXM5+xbk2zatElefvlleeaZZ9ySPaWnp9tD2vmMAwAAoCYMcYcRCF5QEw3MV77wvDEB+sqVK+2g/O6777bnmev1yxcuXOhuBQAAAOqOLO6IqPLycvceEB1ycnLksccek/vvv18++eQTKS0tlb59+8q4ceOkf//+7l4AAABA3TEHHUagBx3Rol27dpKWlmbPJT/uuOPk+uuvl5tuusm+n5SU5O4FAAAA1B1D3BFRXg86ATpMpMPYqzJy5Ei58cYb7V7zgQMHuqUAAABAw9CDDiMQoMMUelm0uXPnyuOPP24PY9dLpFXWo0cPadWqlbsGAAAANA6yuMMIBOioSdqQA2S/8y+0b5vC2rVr5cUXXxT90fLJJ5+Ub7/9Vtq3by9ffPGFuwcAAADQtBjijogiSRxqSwPzfhdc1GQBugbn7777ruTn58vBBx8sEyZMkHvuuUfGjh3r7gEAAAA0LbK4wwjBIL8VoXnk5eW59/Z05JFHyllnnSW33HKL/OY3v5FDDz3U3QIAAAA0D+agI6LoQUdzKC4ulvnz58sTTzwh8+bNc0v3pInfRo8eLV26dHFLAAAAgOZFtyWMQA86msL69etl5syZcsMNN9jBuQbpX375pZSVlbl7AAAAAOagBx0RFQqF3HtA4yosLJS7775b3n//ffv65DpkXYeu33rrrRIXF+fuBQAAAJiDLO6IKAJ01Fb2oh9kxczn7FvP1q1b5fPPP3fX9qRB+YgRI2T8+PGiuTY06ZsmfwMAAABMxbhiRAzBOepCA/OVLzwvHz77jDz00EMyadIkue222+Spp56STZs2uXvt6fLLL5ejjz5aUlNT3RIAAADAXGRxR8R4ATrzz1EXOq988eLF9uXQ0tPT5bDDDpOvvvrK3QoAAABEL+agA4gqQ4cOlWuuucaeX37vvffKr3/9a65VDgAAAF+g6xIR411ijR501EWPHj3kgAMOkA4dOrglAAAAgD/Qgw4AAAAAgAHI4o6I8eagBwIB+xbYl7QhB8h+519o3wIAAAB+xNhiRAwBOupCA/N+F1xEgA4AAADfIos7IoYAHQAAAAAqMAcdEUeADgAAAAAMcUcEeT3oAAAAAAB60BFBDHEHAAAAgArGZ3HXHxA0gNMl/McEyh3NWf7RRx+5pY13fJWbm9vg41Du8HP50I4dZPyQ/eXBP9zgljbP81JOuYdyB+UOyh2UOyh3UO6g3GFq+XHHHeeWmEm7LkMMNUZtzJo1S2bPni1jxoyRsWPHuqX1t2vXLrn++uslNTVVHnzwQbcUqNqKmc/Jyheety+1ptncAQAAgLrSQD08cDcNWdwRcfpLFgAAAAA0NZODc2X8HHTTzw/1V15ebt8SoAMAAABAFGRxN32OPAAAAAAgOtCDDlSDLO4AAAAAmpPpHcDGZ3Fnjrx/EaCjLtKGHGAniNNbAAAAwI+MH+JOD79/EaCjLjQw1+ztBOgAAACoL9M7gMnijogjQAcAAADQHJiD3kD0oPuXl8UdAAAAABAFQ9zJ4u5/waDxH0MAAAAAPkAPOgAAAAAABiCLewMxR96/vCHu9KCjNrIX/SArZj5n3wIAAAB+RBZ3AFFBA/OVLzwvOYsXuSUAAABA3ZDFHaiGd5k1AAAAAGgOzEFvIHrQ/csL0BniDgAAAABRMMSdLO7+RQ86AAAAgOZEDzpQA3rQAQAAADQHsrg3EHPk/cvL4g7URtqQA2S/8y+UdoOHuCUAAACAv5DFHREXCATce0D1NEDvd8FF9i0AAABQH2RxB6rh9aAToAMAAABoDsxBbyB60P2PAB0AAAAAomCIO1nc/Y8AHQAAAEBzoAcdqAZJ4lCtULmE8n+S8i3vS9mqJ6RsyV+kdOGtzrL4L06Zta3c2kf3BQAAAGqDLO4NxBx5/6MHHRIqFSncJKHsL6V0+WQp+fIKKZn3Syld8lcpW/e8FYx/IOVZ85xl6wdOmbWtdN4vpPjL8VK69AEp3zZXQgUbnWMBAAAAUYgs7oiYUChk3xKgxza7p3zdTClZ/Fcp+eEOKd/4hoQKrUBbatMzbn2GCrdK+ea3pXTRXXbQXrZ2hn1MAAAAoDKyuAPVIECPceVFUrbhVSn9/o9SuvYZCeUttsoa0PsdKpXyvCVStm6Gfczyn16ynwMAAADwMAe9gehB9y8C9BhWtFVKl02WshWPS6hwsxVIF7sbGkF5iX3M0pVTpWzZ30UKt7gbAAAAALORxR0RR4AeS0ISyvtBShbfa88ll1CZW94ErGOXbvnQea7tP2iBUw4AAICYRQ86UA2yuMeakJRvmyOlSx6Q0PZF1mrTB8z6048OnS9bpknk5uiaXQ4AAIDYRBb3BmKOvP/Rgx4bQnmLpGzlExIq2OCWNJ9Q/gbruf/l/DAAAAAAGIos7ogY5qDHjlDhlogF5x69BFvpKuscmJMOAAAQs8jiDlSDAD02hMoKpXz1f6Rcs7RHWGj7Yilb9R+yuwMAAMQo5qA3ED3o/kWAHhv0GuVlWz/WCndLIikk5ZkfS9mmt9x1AAAAwBxkcUfEeAE6/CuU/5OUr3/RulP7bO07C8pk2uubZOGqnW5J9Rau3Cn/mb3RfkytWeei5xTJ4fYAAACIDHrQgRoEg8b/ToR6COn1yDM/klBxlltSO1nbS+S1z7bJ6o2Fbkn1Vm8qlFlzsuzH1EWoKEvKt3xo3Sl1SwAAABALyOLeQMyR9y960H2uKFPKs+aLWIF6XXy1NE9Ky0LSo2OiW1I93Uf3/XrpDreklkIlUp493wrUM90CAAAAIPLI4o6I8QJ0etD9KZS/Tsp3LHfX9vTT1kJ5b362FBTteS18Dc7/PXuTHLRfqvTukuyWVk/30X3/PXuj/dhwemx9Dn2uqoSscwvtXOuuAQAAIBaQxR2oBj3o/la+7XOrkqseQr5w5S75+4x1csMjP8rMD7bIq59lyt1PrpE//nOVdE5rIRee2EnatYp3966e7qP7drIeo4/VY+ix9Jh6bH0Ofa4qWedWnjXXXQEAAEAsYA56A9GDDkShULmEcr9zV/Z2zLC28uszu0lKYpy8/HGmPPP2FtmQWSSnH5UuN4/vJQft19Lds2a6rz5GH6vH0GPpMfXY+hz6XNUJ5X5rnysAAABggkDI8G5MvQQXPa1mmDVrlsyePVvGjBkjY8eOdUvrb9GiRfLwww/LAQccINdcc41bCj/Q7O0l83+5z+C3rDwkOXmlkruz1P4bT0mKkw5tE6RFQv2mPBSXlEtmbonkF5bZ7UbblvHSrnW8xAX3cRm/QFAShv9HAsnd3AIAiF3Lli2T6dP/a/1b/578+ONiyc/fc+oQzJGS0lr69x9sfSc7UcaPv1QGDhzobvGnoqIieeONN+SDDz6RefO+kTVrVkpOTqaUlBS5e6CxJCQkSrt2HaR37/1k+PCD5YQTjpXTTjtNEhNrzg0ULbQD2ORO4EBGRkbI6BMkQDcGATpqq3zL+1K65K/u2t70T9qKz0XTD1QVPte03VNmxf8af1d3Kf2atqu4/f8ocZ1OcNcAIDZdffXv5D//mSb77z9BunUbI+npQ6VFi+pHICGyiotzJSvrO9mwYbYsWTJVfvGLK+SRR/7hbvWPefPmWd8Vp8jMmc9Inz7HWYHjCdK+/aHSpk1/SU7uJHFx/gkaTVFWViQFBVtk+/YfZdu2ryUn5wNZvfojueCCS+TaaydaQftwd8/oZXp8SRZ3RIz3h0GSOP8J7Vrt3qva9+tDMuH/tsq3q/fO8K6B+ZylRXL53zfK95uT3NK97ShpIVdM3iyvzcuX0ioug75yS5lcN2WLvPG9W1CdXavcOwAQezZu3CjDho2Qzz7LlwsvXCuHHfY36dLlZwTnhtP60XrS+tJ60/rTetT69INVq1bJ+edfKqNHnysrVgyUiy5aJ8cd95YMHXqjdOs2Slq27Elw3kT0fdX3V99nfb/1fdf3X+tB60PrResHTcf4yIg56P7FyAj/qunyZbvi02Tt9kT558sb5atVZXZQ7vlqVak8/eYm2bSzheQm9nRL95YvLWWLdJaZ72yQDxYWWceo6Cb/cYvIlNe2yJL1JbK9RXe3tGpcag1ALDvttHMlIeF0OeKIqQTlUUrrTetP61HrM9pNnTpVBg0aLGvWDJDzzltvB4nJyR3drYgEff+1HrQ+tF60frSeohVZ3IFqeAG6DjOBv4RK9n1d8sT23aXt8VfIj5vL5a6pS+XaxzbLPTO3y5WPbZG7/7VUVm6Lk3an/04SW7VxH7G3YFxQ2o2+RraEOsg/nlkuE/+xXu62jnH9vzLlpocXy1dLd0irkeMktecg9xHVKNnp3gGA2KLD2kUOlEMO+ZNTgKjm1OOBbr1Gp2uumSR33z1Fxoz5zHo9t7ulMInWi9aP1pPWVzQyvQOYLO6IGAL0GBaMk9SDT5WOl/1dijoeJIs3lMr7X+fI0p9KpKjzIdLhkr9Kyv7HuDtXL7HngdLx0vtF+h8vqzID8sHXufLtqkLZ0bKPpJ9/h7Q59hIJxLdw9wYAeDQhnM45P/hgqw2Fb2h9ar1q/UabSy/9pbz//mo5+eTPpUOHw9xSmEjrR+tJ60vrDY3L+CHups+RB7C3QHwr996+JfY+SDr/+lHpMnGqdLziH9J5whTp/MuHJbHX0L0yu5WWheylsoSOvaXDxfdK5yv/Yx1jsnW8x6XLldMk5YDjrWPUoolLqP0l3QDALzRbuyaEY1i7v2h9ar1q/UYT7YldsCBLjjnmFeaWRwmtJ60vrbdo60mnBx2oBkni/CuQ1MG9VwtWEB2f3l0Suw+WhPY9KoJq6/OxfmOuPPfeFrnnqTVy65SV9qL3tWztxp32Pp74tp2cY1gBeyAu3i2thcQ6nCsA+IReSk2ztcN/tF61fqOFzmV+9dVP5KijnndLEE203rT+omlOuukdwGRxR8SQJM6/Aql93Hv1U5a3TTKfu00e+9sL8s9XNsi787Plux93yncrdsk787Ltsj/cN1cyZ9wqpbmb3UfVTyC1r3sPAGKHXudcL6UG/9F61fqNBpoN/Oqrr5XDDptCz3mU0nrT+tN6JLt74yCLOyKGOej+FWg1sKInvB5K87ZKeUGeHDysh/z5133l5b8cJG8+OEze/PtQeeWvB8pdv+orRw1rLyXZG6R443L3UfVgnWOwtXWuABBj8vPzGN7uU1qvWr/R4KabbpehQ29hznmU0/rTetT6jAZkcQdqQIDuP4HkrhJI6uyu1V1i14HS/rzb5PzxJ8sxQ9tKu1bx9pR0Xdq1SpBjh7WVa38+VDpceJck9av/P+p6joGkLu4aAABoLvPmzZMPPviYbO0+ofWo9an1ajrmoDcQPej+VV5ebt8SoPtQICiBtg0YOhmMk7jWHazDVN8Lr7kLEjr0kmCLFLek7gLthtnnCgAAmtfDD0+R/v2vcdfgB1qfWq9oGOO/mZLF3f8I0P0p2P4oq3LrkKytuVnnFpdunSMAAGhWRUVFMnPmMzJgwOVuCfxA61PrVevXZPSgA9WgB93fAik9JdhqgLtmnoCeW2pPdw0AADSXN954Q/r0OU6Skzu6JfADrU+tV61fk5HFvYGYIw9EqcQOEkg/3GplEtwCgwQSJJg+XAJcYg2AT2z46AMp3bXLXQPM9sEHn0i7die4a/ATrVetX9QfWdwRcfSg+1PACsyDHY6TQIt0t8QgiekS7HicdZIGD8EHgDr6+KqJsvKF5wnUYbx5876R9u0PddfgJ1qvWr8mI4s7UA2GuPtfIKW7xPU4z7oT55YYwDqX+B7nSyC5m1sAANGv23EnSEJKiqyY+RyBOoy3Zs1KadOmv7sGP9F61fo1GXPQG4gedP8jQPe3YJdTJdjxZ1rRbkkkBSTY4WfWOZ3irgOAf+x3wUX2rQbmBOowWU5OpiQnd3LX4Cdar1q/qD+yuCNi6EGPEcFEie/7Swm0HuwWRJB1DnF9f2GfEwD4jfaiJ3eoyK1BoA5TlZQUSVwc/xb7kdar1q/JTO8ADmRkZIRMPkkN3kKhkLuGSJo1a5bMnj1bxowZI2PHjnVL6+/zzz+Xp556SkaOHCmXXXaZWwq/CuX9IKVLHpBQwQb5unSYPFx4pbuler9N+pccGT/fXdtTZnl7uSH/XneteucmvCJnJL4hpWWtJXvnsVJU3NndItJuyAGSNniIu1Yhe/EiyVn0g7tWgf0d7O9gfwf7O0zZP2/Natk670t3bU/xqanS+/Sx0uu0MZLQsqVMmMD3K7+aOtXs78/6/Z7Pn39Fw+fP6POzFuv8zD1B/fGAYe5maOwAfc6cOfL000/LMcccI5deeqlbCv8KSWjb51K68gn5akf7Zg3QT0v4TJa+XSyZq+P1NHbb7/wLpZ87JDSc9jhpb1Nl7O9gfwf7O9jfYdr++6K97Bc8/YyceQk96n5FgI5IIkBvGOMDdJijsQP0zz77TKZPn06AHlOsIH37YlmwfK78fcsJ1tq+pzc0RoA+vv03clRSvGxbrl9E93y+NO2RspbKshf9YC+Vsb+D/R3s72B/hyn779Ae9Pnz3LU9xaekSK/Tx9q96PSg+xsBOiLJ9M+f6R3Axg9xhzkaO0D/9NNP5b///a/87Gc/k4svvtgtRSzYnr9Tnl6UKV9uDUlZqPogvSEBelDKZUSnoFwypIO0S2nplgKAv31y5QQpyNwzQVN4YK7D3BUBkr8RoCOSTP/8mY4s7ogY/nBjVxsrYJ54cHe5ZECSdEwOSEIjpquMD4TsY44fmCS/HtaN4BxAzNjw0Qd7BOcamOvQ+J89NtUeHu8F5wAAc5HFHUBEtIhPkNH9u8ofh6fLGX2SpV/rkB1c15c+tr91jLP6JsvNh6XJqf27SWJCC3crAPjfypnP2bcE5gBQPdM7gMnijlpr7CHuH3/8sTz77LNy/PHHy0UX7Z34BrGjtLxcsvKLZH1egXy9eaf8sK1AsksS5MakB2X/uGXuXnvaGUqR63f9VVolBOXADklycKdW0rNNsqSnJEp80PjfHgGgUWnv+dJp/95rKHt1qhpifMYZIqecYgX48W5BmDlzRJ5+2l2pI71Qy8iRIkuXikye7BaGGTRI5IorRJKSRGbMcMrGjXNudf2LL5z7tTVpknPMqjTkddTWkUeKnH22yMsv1/3ca8t7jdW9Hoa4I5Ki4fNn8vkFTe+hzsjIcO/Bb/jhBR4NqDu1TJbDuqbJxEN6ykMn9ZfHj0mWAw84R+J6XijBjsdLYVEPyVoTJ/mFfSVolbUdfJ1MOa61PHTyAJlwSC85vFuafQyCcwCxqil7zDXA5oqoNdPgXH9c0B8bYlV5ebns3LnTXQNQV2RxR601dg/6hx9+KM8995yMGjVKLrjgArcUqJpeRkgvJ6RfPnXoJgCg/vbVg66x1bRpTo+38nprvR5wr0fcU1i4Z093eJCq25YvFznooD170MN7uVeuFElP33cPeuXAd9MmHabq3K+s8vlW5h1L6fm1bVtxvMqjCMKfJ/xxW7eK9Ozp3Pf2qSo493q4dXuXLk5Z+PtV0zE94eeVmyuSlSWy335m9qBr598m6wWcYp3w6aefLi1a7D3djB50fzO9B11Hj5s8gjxIDzUAAABqQwPFI45wV1wakJ56qnNfA2Md3u0FqXqrwXk4DfC94FxpoKlBcnWqCnw12NVAvCH0eN7zrlpV9RB/fZ777tvzfPVxXiCtdJ99jS4ID86VPl7fo9oeU1//qFEV56XnrO+ZqcaPHy8JCQny0UcfyQ033CBvv/223asOmML0OehkcUfEeI21/ooKAADMoAGgBr9TpjiLBpKlpU5P92uviVx1lcjEic7y+uvOtuRkZ7/hw53Hay+x9sLrPtob7NF9hgxx7msPd/gxqjNggBPAevtrr7j2Ivfu7QSv1dHn8l6DLpUDbaU90HpM7YU+5BAnCK78PPp69HWF8x7nvTYdAaA94tozrq/de/06eqBdO+c4ejx9jB6/tsdUI0Y4r987hndepurbt6/069fPeg8KpaioyKrf1+X3v/+9vP/+++4eAPYlYPr4dtMn8ceSxh7irg31zJkz5aSTTpLzzjvPLQWqlr3oB3tJG3KAvQAA6m9fQ9zDe5CVBs9vv+0E557KvdoaMGpAOnq0EwSHDy/3hsRr2dy5FUO6vWHeuv++ksRpgFo5sFZVnZcKHz4fzjtHDY4rn0P4UHOvTNV07uHb9fVWPk7HjlW/p6q2x/R64MOHs3uvcV9D3CdMmOCuNdyAAQNk5cqV9ucmGAzuXiqve0txcbEdnGuQ7tFe9ZSUFLn//vur/PzBPxji3jDG96DDvxjuhLrQoFznnxOcA0DTCu/t1UV7zL0gWIP4Rx91hmg//njNvd9NSYNeDbarowGu9xp0uekmp6wq+prDYslm0aaNe6eJTJkypdEW7QF/5JFH5KGHHpIHH3xQ7rvvPrnnnnvkz3/+s53Q+ZZbbpEbb7zR3u+6666ze9BLwz4YGpi3tSprhP7aAkSY6UnSyeKOiNNfWgEAgPl07rMGxps3O8GuBsjhvcOavEx5w8+1l9cb0q68QFh7y71YzRsWXx3vmJUDbl2q6j2uDz12QcGe5xV+7t451JUmftM4tfKPHrrUto9s+3bnVs9Fz0nfV31/m5t+X4u3Klt7wpOsN0qD7tTUVGnVqpUdfKelpUl6errdc/rtt9/aAbru16VLF7n44ovl7rvvlrP1lx0A+2R8ZEQPPwAAgFk0UJwyZc9s7mrePCcY1UBXh63rUOzw4FsD4UWLnPvVHaMyncetQb23v7dUNae8IRYscIJp73m8c9fXo6+rLrzXr8F+To5znPB5/ToKQUcj1IYOg9fX7x3Dmw5gqqeeesoewt69e3e5/PLL7e/yhx9+uLsViDzTO4DJ4o6IIUkcAACN4/PPP5f8/Hx3rem8+aYTsHp0DrQmNWvZ0knmpgH4yy9XDBfXgFeTy4XTXm/dz7Nt257HrEznZev87PAh6Hpfnyf8OA2lw/h1TnvYyGz7te1raHxleq5r1rgrLu1rCk+Up778cu+589XRY2p+Ne+89LWvW+fcN9HRRx8tV1xxhdx2221y8MEHu6WAOUzvADY+SZy+gfSim6Gxk8TpZTdeeuklGT16tJx11lluKQAAqCsN0F944QUZNWqUnHDCCfbw430hSZe/mZ6ki8+fv5n++TOd8UPcTZ8jj/qjBx0AgMZx1FFHSXJysv1j+q233mr/oN4cPeoAEG1M7/wlizsijgAdAICG0xFuSgNzAnUAqBpZ3BuIOfL+5Q19IUAHAKDhtBdds2h7CNQBIPpoZGT6NHQYorHnoL/++uvy2muv7f7FH0B00B/Vwn9gq+/95tKQc4yl+/V9XE33la6bcl9vVW3vK++xDbmvt6ryfVWXx6p9lf/000/2Ja6qovPSvTnqenks5gD7F3PQEUmmf/5Mz3EWyMjICDHMHbXR2AG6HkuPCQAAmo/2sj/yyCMyblyeWwK/IUBHJJEkrmHI4o5aa+wAneAcAIDGtX79evnuu+/ctT1pEjntQdeFHnR/I0BHJBGgN4zxAXr4EC5EVmMH6AAAoHHdcsstkpWV5a45wgNz7/JrBEj+RoCOSDL982d6BzBZ3AEAAHxAr4UeHpxrYK4/qt977732D+s1XRsdAGIBWdwbiCzuAAAANdNRborAHACiV9C9NRY9/AAAAPumved6GTUCcwDYN9M7gIP0UAMAAEQ/AnMAqJnpHcDGz0GnBx0AAGDfjjrqKAJzAPAB44e4mz5HHgAAAAAQHehBBwAAAADAAGRxbyDmyAMAAAAAYgFZ3AEAAAAAMYEs7gAAADBKSkprKS7OddfgJ1qvWr8AqsYc9AaiBx0AAKBx9e8/WLKyvnPX4Cdar1q/AKITWdwBAABizJgxJ8qGDbPdNfiJ1qvWL4Cq0YMOAAAAo4wff6ksWTKVYe4+o/Wp9ar1C6BqZHFvIObIAwAANK6BAwfKL35xhXzzzY1uCfxA61PrVesXQHQiizsAAEAMeuSRf1j/XSgLFtztFCCqOfW40K1XANUhizsAAACM9MYb/5OSktflyy8nMNw9Smm9af1pPWp9Atg35qA3ED3oAAAATaNr167y7bdz5eijU+T553vJV1/9QTZt+phg3XBaP1pPWl9ab1p/Wo9anwCiWyBkce8bKRAIiOGnGDNmzZols2drZtAxMnbsWLcUAAD4wbJly2T69P9a/9a/Jz/+uFjy8/PcLTCNXudcL6Wm2do1IVy0zTnX7/cTJvD93q+mTjU7ftMOYJM7gQMZGRkho0+QAN0YBOgAAABoKAJ0fzM9QDc9viSLOwAAAAAABiCLOwAAAAAgJpDFHQAAAAAAA5jeAUwWdwAAAAAADGD8EHfT58gDAAAAAKIDPegAAAAAABjA9A5gsrgDAAAAAGAAsrgDAAAAAGICWdwBAAAAADAAc9AbiB50AAAAAEAsIIs7AAAAACAm0IMOAAAAAIAByOLeQMyRBwAAAADEArK4AwAAAABiAlncAQAAAAAwAHPQG4gedAAAAAANceSRIg89JHLffSKDBrmFNfAeM2WKs1x2mbsBaEJkcQcAAACASgYMEElKElm6VGTiRJGnn3Y3IKqZ3gEcyMjICJl8koFAQEKhkLuGSJo1a5bMnj1bxowZI2PHjnVLAQAAgNrT7/cTJjTv93vtDR83TqSwUGTaNCf4PuUUkZ07RUpLRdq3d/bTYHzyZJFJk/bsadfHzZjh3NfjaOCuNm3SgM+5f8YZzjF1X9WyZcXxdJ8uXZxy71hffFFxXmrrVpGePZ374cdV2ns/cqS7YpkzZ88fDKo7fiRMnWp2/GZ6fEkWdwAAAAAxqW3biuBc9evnBNpV2W+/PYNzpUGxBvPhNDDXRQP/lSv3DJ6VPv7ss/f8AUDLvOBc6f7ekPrKwbnSdW97bY6P6EEWdwAAAAAxSYPo1193erlzc0Xi452gXde191vp7XXXicTFOcGvN+Tde0zv3k5PuMc75lVXOb3i7do5++n++jh9vD7H8OHuA1zaK67btfdcpac7QfaQIc66t11vVd++zvPW9vhwkMUdAAAAAAykQ9yXL3eC2s2b3cJqaMCsNGjWpHHac66BsAb1HTs625R3TKXlXtCv++vjvJ5t73hKh6V7j1m1yrlV+jj9USB8uw5t10Bc+zFre3xUML0DmCzuAAAAAFBPXoBcV23auHeaSFMfH02DLO4AAAAAUIOsLOfWG+IevlSX4V2HuOuQ9/Ah6N5Sm35IfZz2nmsv+ogRTpnOkX/0UeeScTrsviHHj0X0oAMAAABAlNMh5hose0PcvWVf11bXTOo5OXsOQddFA+zqktGF0x8DFi1y7nvPe/rpTq+9lr/8csOOH4tM7wAmizsAAAAA1ECDbb18mQbpHr2vQbIG0tXR/lAv8Zvnyy9FXnvNXamB9s57ieE8+nxer31Djw+zBKwlxHXGURtcBx0AAAANFYnroKP5mH4ddB1BbvIocrK4AwAAAABiAnPQG4g58gAAAACAWEAWdwAAAABATKAHHQAAAAAAA5DFvYGYIw8AAAAAiAXGD3Gnhx8AAAAA0BhM7wAmizsAAACAmHbGGSKPPioyZUrVy2WXuTs20JFHijz0kLPofTQ/5qA3ED3oAAAAAPzgiy9ErrvOWfQ+UFkgZPJV5C2BgNkXuo8ls2bNktmzZ8uYMWNk7NixbikAAABQe/r9fsIEs77faw/6KaeI7NwpMm2ayNKl7oYw2uM9bpxzf+tWkZ49nfubNmmnonNfTZokMmiQc3/+fJH+/UWSkkRmzHDKvGNUXq/tMUtLRd5+W+S115x100ydanb8ph3AJncCk8UdAAAAAGpJg20vkFZdulQMgddbL5BWBx/s7F+TfR0zPDhX8fEio0YxRL6+yOLeQMyRBwAAANAc2rZ1AuLw+edVzRefM0dk4kSnp1ulpztB9JAhzrr2wOv2L7+sXYCuqjtm584ihYVOz75u1/30mCNGOPvBX8jiDgAAAAC1pMHy8uXO/VWrnFulwb0Gzrp97lynbN48kdxc5/6+1HRMXa64wvnBYORIZ1ubNs4t6oYs7gAAAAAQBTSYnjzZ6an2FlMTuiUn7zn0HbVjegcwWdwBAAAAoIE0uNee8PDh58OHO73g9eUdUxdviLu33HRT1cnsEN2MH+Ju+hx5AAAAAP5Q1Rx0XbSsJhosL1rk3NeebX3cEUc4wXV96TE3b95ziLu3NNa12WMNPegAAAAAEAOefrqiV1svh/bxxw0L0JUOua/cU67r+lyoO9M7gAPWYvSl0PUHBH5EMAPXQQcAAEBDmXgd9MaiYYteIs27jnn4tdP1uucmzmVvbKZfB10/fyafH1ncAQAAAKARbN/u3GqQrsPQdVi6Dk/PyYmN4DwakMUdAAAAAGKADkf3rmPu0URvzz3nriDimIPeQPSgAwAAAIgWGr6QbR31RRZ3VOnzzz+XuXPnumv7pvvqAgAAAAAmowcdUWnYsGHy/PPPyy233FJtoK5BuW6fOXOmvT8AAAAAmIws7g2kPyDwI0JkeFnbVXp6uvTo0UO+/fZbGTp0qPz000+SlZVlbyOru7lmzJghL816S+bP/0o2b1grRQW73C3+lZicKp279ZLDDz9Mzhl7qozzUqcCaFS0L7QvQH35OYs7yOLeUMYH6Iic/Px8u4e8oKDALdlbcnKy3HvvvZKSkuKWwAR//etf5S9/e1Ba9Rku8fufIal9jpTEDn0lmNjS3cO/yot2SlHmKtm1+gspXfKa7Fg9T/74h+vl5ptvdvcA0BC0L7QvQEMRoPub6QG66R3AgYyMjBA91KhOeC96Veg9N8s333wjl1wxUXak9JHWJ94qyd0PcrfEroKfvpe89+6RVvmr5ZlpU+Tggw92twCoC9qXvdG+APVDgO5vpgfopiOLO/Zp1KhRdi95VbRct8MM7777rowYeYzkH/gr6XT583x5dun7oO+Hvi/6/uj7BKBuaF+qRvsCAGhsZHHHPunQ9eqCcC1naLsZtGdr7JlnS/fL/yvtj5ngliKcvi/6/uj7pO8XgNqhfakZ7QsARA/TO4DJ4o4aVdWLTu+5WXTYaedzH5S2w85yS1AVfX/0fdL3C0Dt0L7UDu0LAEQH0zuAg6afYEZGhnsPkVJVLzq95+bQhE06J5SerdrR90nfL33fAOwb7Uvd0L4AABqKLO6olfCM7mRuN0ub9I7S/ar3mBNaB5rY6adHT5TtWVvdEgBVoX2pO9oXoGYkifM3srg3TJAeatRGeC86vefm0OsQ66WO+PJcN/p+6fum7x+AqtG+1A/tCwCYjTnoDcQceXNoYJ6enr7XcHdEzkuz3rKvQ4y60/dN3z8AVaN9qT/aFwBAfZHFvQm89dZbcswxx0rr1l0lPj7JHsbjhyU1NVX+8pe/2LdVbY/GRetH60nrS+st2syf/5Wk9jnSXUNd6Pum71+0eeKJJ6Rnz96SnNzB+vwmVvm5ZjFj0frRetL60nqLNrQv9Uf7wtLUS7S3L0Akmd4BHMjIyAiZfJLaCEXTHPmDDhouixcvlMGDfyu9e58p6elDpUWLtu5WmKa4OFeysr6TNWtetertcaveDpTvv5/nbjVfUkpLGXzfZgkmtnRLUFvlRTtl8U2dpTB/p1tivo4de0p2dibtS5So3L6kpXWQrVvXuVvNR/tSf7QvaGrR3r7o93vmoPuX6XPQTY8vyeLeSPS6p9oTW1g4WMaP3yQjRjwoXbr8jH/cDKf1o/Wk9aX1pvWn9Rgt17EtKtjFl+d60vdN379o8M4779g9JW3bnkD7EkUqty9af1qPWp/RgPal/mhf0NSivX0BUD2yuDcSDeoGDrxSDjnkT24JotWCBXfLsmWPSV7eRrfEXPoL4KFT+Putr68nRscIHf3SdcAB19G++IC2Lz/88JAUFGS6JeaifWkY2hc0t2hrX+hB9y+yuDcMWdwbgQ5r79z5ZP5x8wmtR61PrVcg0nTYaY8ep9O++ITWo9an1isQabQv/kL7AtSO6XPQyeLeQJpYTOecjxz5D7cEfqD1qfUajYnj4B+a+EfnhNK++IvWp9YriZ0QSbQv/kT7AkQ/srg30D333GsnVGGulr9ofWq9av0CkXLXXXfTvviQ175o/QKRQvviT7QvQM3oQfe5775bYWc7hf9ovWr9ApGSmbmL9sWntF61foFIoX3xL9oXYN9M7wA2Pkmc/oBg8o8Ieh3t8eM38wu0D+klTKZP7yylpYVuiXlI4tQwpidx0uvcjh+/pd7tyxlniJxyih7HLQgzZ47I00+7K41g0iTndvJk5zbcoEEiV1wh0raal1Fo/YnNmCHyxRduQS0ceaTIuHHO/do+Vv8p6dKl8V97fTjtSyerfSlyS8xD+9Iwfm9fYK5oaV9IEudfXGatYYwf4m56D39ZWRH/uPmU1qvWLxApZWXFTda+jBwpctll7koDaXCuQXhz0oD8uuucpbaBvf5zMnFi5INz5bQvxe4a0Pyasn1BZNG+APtmepL0gHWCIYa51x+/APpbNPwCSA9X/Znew9XQ9sXrQd+5U2TaNJGlS51yL6DWda/H2+tdVqWlIm+/LfLaa856VT3gXi905eA8N3fP56rMO1bLlhXP4Z2n9qQr3aaPz8pyfkjwhPe0V+5B79ix4rXq+bdv72yr6jV65+6tr1wp0quXM9Kgcm9++CiETZtEtm93XkNj9MLTvvib39sXmC0a2hc+f/5l+ufPdGRxB4AYFx6cKw1GTz+9oof9oov2Hp5+xBFO8NqYNDDXRQPsuDjnOcIlJYmceqq7Ug09Ty84V/361Xye++1XMQ0g/Dn0R4BRoyq26XvUo4dzHwAAoCmQxR0AfE6DVu3pnjLFWbQHWINg7TnW4LVDB6fnWHu+dQi49g6rIUMqesd1/9dfd7brctVVTu+39k57veV6e9NN1fee18R7Dj32Aw84t97zabluT07es8e+Mu8Yel7am6/BdXVz3z3aMx7+ur3nGDHCCdj1OHo8fX/0hwMAABC9TO8AJos7AMQYDWK94eVe7/GaNRXDuufNc4JSDU41uF21qqJXXQP8hx5yepcbmw5PX77cXXHp8+jz6XN7Pdn74h1DfyTYvNktrIG+PqWP84bZqzZtnNtFi5zj6fuj7xMAAIhepncAB00/QdMn8QOA6bwe4Mq930rneddE51rr47yecQ3cdR55YyWZq4r27D/6qMjZZ4s8/nhFDzoAAICfkcUdAGKYBu8a+PbuXdErPny403Ouvcm63eMF+d5Q8L59ndum4PXsay+4/jCg51ObHvTGpAnhlDfUX98ffZ8AAED0Mr0DOEgPNQDELu1Jz8ys6BXXIexe5nQd2q3uu69i/nr4dm9ouEeD2MYe/q7HDH/O5jR3rvMjhTeHX9+fsjJ3IwAAiErMQW8getABoGlpM6uJ0jxeojUd2q6915ocLbwnXWm5d5kxL5BtTG++uedzaq+9nqNmeR8wwC1sYjrn/P33K4bW62tev965DwAA0BQCIcMvUqfXSeQ6jogUP16neOfKObLs/qPdNZE+v/ivpB1xibvWuLK/fEZ2rvhUul8wWYIJyW5pRXnn02+TDS/eIF3G3iFJnQbKptf/bJ9fn18+I/Gp6fa+hVuWyaZZd0iPcY/sUbZq6oVS8NN39nrXM+6SLtax6orrFGNfdI699tzrjw/etdH1x4zwa6k3hJ+vg17fv9HSXVmyfsbVdpvQIq2n/DRzkqQdOV5a7le7IRRVtRf1peey+t+X2Odd2+cPR/uCSOI66Igk0z9/2gFscicwWdyBGKKBsQbBQx/cZn/xPviRfDtQ1rKmkNL7MCnatlqKs9e5JSLlJQX2c7bsd4wVtCe5pRXyFr0teT+85a7tTQN4/eLfd8Lz9mvwAoh1z/zGPjbQWLz5+eHD/zU414C9crZ5VGisv1H9Ua/nJf+sU3CsP/T1+dWMBgfnAAD/Iot7AzFHHmgc2hu0feFs6XHhQ7u/vOoX4K5n3SOFmxbbPU+6rH5inGx5b7Ld+7P4z8PsMo9+8dZyXbwv27rofQ3yvW1ewK89YInt+0j+mq/sdaXBugbtGrxXpdPJf5CsL57e43k9+lzZX0yXnhc/an8R93Q6+Qb7Nn/dAvsWaAw6P//LL90VlwbsOuzduyQd9lSbv1Gvzdj26VS7jdE2Q3881PKNr9wq2fOfswP8/J++s/fTdqeqtknLf3z41D3aHG8/be/C2yRv0ceoqtoy5Z2bluu5AADQ3MjiDsSIws1LJS65jR00hwu2SLHLvSC6YNMSKS/aafd6dbaC5a3WF2L90qpffDfNvkuG3LXU7nlXW955wL5VJbkb7PKBN34mOQv+Z++vPwBoT7n2mHtfgPV5WvY7eo8v7+FSug+V9CMvk5yvZrolFTS4LyvYLkmdB7klDn2ehLbdZMfSD9wSoHF4l5ir6hJ12Ftd/kZzvnlJBlz/vt2m6I9y+lj9wTDt8Ivs3vekTnsmG9C2KaFVR7ttanfIubLu2avsHxz18TtXfLbXj3o6NN3rwdd99Lh6Xvtqy7xbLdeh9TqiBwDgL2RxB2A074uzJ6F1J2l32AX2/dYHnGp/2dYvzhpYa2+4Bvj6GP3yqkG5F3g7Q9aT7S/AyV32t8uU9pTrMcqL8+19NVhvNegEd2vV9Hm1h8vr7aqNxPZNeM0vAA1W+W80/Yjx9mge/bFOf7QLH2lTFW2bvJE3eiwN0vWx8S3bW8dJs8urogH5+ueutee16/NV15aV5mfbt7qu5Sk9D5EOx050jwIA8AvTO4DJ4g5gD/pFV7/wViXzkynyzdUp9vBPTTRXlLXGCrydAL1F+6ovEK1fgrWHXnvwdXirPqZy71pl+iVae790qKx3fAD+Ul2bUZ19tU3VsZPOPX+ddBlz+x6jdqpqy0p3Ztm3AABEkvFD3E2fIw9ECw2Kvd7wcPoFVuegez1TpbuyrS+q25z71q2uezQTszdkVJf+1761z54r5fXQ69BWXbxes5po75XKnvesfavCg/1wte2ZB9C06vI3WrzNCYZ1m/ZcNzY9rs4jryoLe1VtWYt23SUxvW4/GgAAog896DFG307N9KtL+Fs7aJDIffdVbNPL99TXpEl1O4Z3Tvva/8gjRR56qOL8dNHz1fOuKz0/XZR3XF30fn3U5vw9ddk31mhQ3ObAMXZvkgblyvsCm9Rl8O7epZK8LbuHmoYPBdUAPnyepyZgCk+utC/6pXzja7fbc9OrSw5XmQb2HU+cJHmL35HS/JzdZTr8VOeehs839eaNekE9qua1HeFLff5WtF245x6RM85w1vX20Ufr32Y0RjsRTo+h5+Idy3vdXruEplOXv1EvN4X+aLivxJH1UV5SaF+iTafeVA7Oq2vLlO5vj9yxzktH/GhPO2rPawu87z9VtTnesq+/x309rjn+fa/chjQF7zXyfQVofmRxb6BoniOfnFzxZXXAAOsf/pbOfdPoP6jjxzuXEgrXtq3INddUfAmvDf0HJ/wLumY6vu46Z6lv1mP9h16TM9XmmsN12TcavPvuu1Ko13RqJHq9c+1N+u769vbQTh3iqV9Itcyj88f1i7Nuz/pyup20Sb90awCvw0QX3T7I3qbzw71tNdHe+9ZDTpGWfY+0g/3a0ufURHXh9Mu2JpDSLM96HroovRxTbc7FJI1dv/uifxtVBc96nW/vy3Rt6DH0kmPaPng0aZomT7vpJpGle3ac1kpjtBMe/UI9btye7dnkyU67oLeo0FSfv9r+jerIGm2DtE3xhqB7SSv1sYVb6n8tO815ocPVV//n0t3noItmi99XW9b2kHPsx+t5aaCuV5WIVs3ZvtSHtiUmBqdVtSGoO9M/f4DJ9F/NkMkXkjddIBCQCRMq3j/9oqvXyVV6OZ6333a+vFYOXOfMqQgi9R8o/ZLs0S+44V8kNUA+5RSR+HjnurxZWSL77bfnMcKfV9vDGTMqvuh628L394R/2d60qeKLelXl3nns3Om8tvbuVEDvfCu/Rj1XPYfjjnPW9Zw6dtz7GN77pLzXGX4u4eev1x6u6h9Ofa5p00Quumjv1+o9XoW/N94/wl555fdATZ0a0D8Qd635XX311VJeXi4nnXSSjB492nrde75w/fzp8MzGoj1Km2bdIT3GPVKrYejRTr+cm16/4e1LfXltTHibVF2593e8bp3z96qn5G3Xv7/Kwbn+/a9cWfF3Hf53qOW9eu35N+39PYY/Z/jfov596g+a4W2ix2trKreZ3t+1qtw+aFuQbn2U9TWFt637andrausaS6y1Lx7tndbebe1pb1mHa5xHm1hpX8J5fzuZmc7futeeVP7b8f7+Kv+b66nuceG8tkSPobdeO+B9z9B2R1V+Du9x4e1TTW2Ifp/wHqfCv0uofR3T26c23+UaUzS0L439+YM5Iv35q4mOIDd5FDlZ3JuI/oOgjbA2vqpNG6ex1kY5XOUviUr/UfI+M/rFddSoin9o9Iuxd0xP+D8aStvAs892jlMTr2dfz+u559xCi/6j+PLLzjl36OD8w+LRc/C+sCp9Hn0ddRF+DH1t+hrD/0HV11PXY1alNu+NlnkBx6pVzq0pzjnnHAkGg/Lee+/JDTfcYNXJy1adWJUCX2iu+u3rJs/Wa3p7wbnSL4X6t65/d4dUmh3Qs2fFl1Tvb3T/iuT8taJtVfjf9IMPVvw9arm2fbVpp8JpW3TEEe6KS8/z1FPdlVqoqd31VG7r+vXbsy2MdrQv/hYr9eu1KTk5ewfnSrdXNf0mvH2qqQ2p7fes6o5Zm+9yfkP7ApMxB72BonWOvP56rO2QBubaMLdr5/zjURA2XVcb9iFDnPv6C6oOwdTeJ32cFxSPGOE08hpA66/IuoQH+d6xve16DP3CrY3/8OHuTvug++k/GHpe+rhw+quvnnNl2qP0+usVz6U0ANDn99b1Voe76g8VVfGO4b1efY0rVjjH9B6jvV6V6TnpMFjdTx+vx1GLFu19/nV5b7z3vyl+xW6IE044QRISEqSsrExKSkqa/B86HfrZ51czYqL33ATNUb/azuh0G/1bCW87PNrj4/0dhavc5ujfaKtWzt+srnt/w7q9Ovq3HN5OxMU5j/f+dvWY+vdYmf4d6uPCH6tvx9y5zg8MOpze2+4dS1+jnpf2WOm+uuhzVf6brk276wl/jXpsbSurOt9o1dzti0eHkutw95Y+7j03QaTqtyr6dxc+j1x/INO/rwUL3B2qUflxVQXaXjujXxf1h0b9O9V2Q8u8v92q/t33HqftgKquDdGRQ7X9LlHVMfV8a/ou50cmff6AaBMImTz+wKJDYEw+xcpDdLxfWefPF+nf32mQtXE/6CCnQdeAXbdr462Ns/7S6w0L9b6IekO7dB8NfL39vS+a4du9Y3i/yobT4+k/At45hR/DU9MwMy3TL63hQ9C9oWtKg2AdDub9QzZ6tHNu3nN725X+oxc+xF33VzpkVnvxKw+x3df565do73V7+6nwfWt6b/TLfvi5ecPQwukQnQkTJrhr5oizIp2DrA/Vb3/72yYZghordAiq6fXb0CGA+rdU+W8snPe3VHlIavjfm9dO6N/Nm2/ufTzvGJWHuHvHqNzOVG4XVFV/i9656Bf5yufuHUPbWKV/7/rc+qW58rHC25TKw/G1TFXVrobvU9X70lC0L/4WC+1LZdW1J5V5f6/e319ltXlc5e8GldsVrx0Jb7+q+k5R+XtM5Takql55T22PWdX0u6ZoU8JFQ/vCEHf/Yoh7wwQyMjJCRp9glAbo2uB68x537RJJTHS+YOqvu952bz6114B7/1CFN9oNCdC9L8Ph51T5H4HKX6zD/7H0/oHRY+u5q8r7Vv5HqDkCdO+Y+sW88g8L4fvW9N689dae51ZdgB7pz9/1118v+fn59nnEWy9GP3OjRo2y53QlJyfzBboBIj1HVNVUv43xBWZfbYD39+b9LVX++1ORCNC9x6jw8678XDpNJ3y9pgDd+2FuX+1ucwbotC/+FSvtS7jqAnSvPfHWq/rRLVzlx1Wlcrum+2vbpN8Nwv9Nb8oAvbrvWZWPGakAPdY+fzCH6QG6fhZNPj+yuDchTQCiUlOdf4y2bnXWPfolUBvv8GFS2qj37u3sr9u3b3fKdUimNuTedo8e09tX/+HRoVXeov9g1ER/JNAvoXoO+g+IR59L51fpP3S6Xffz6Bdz/VKsvGFbVQ2Rbwrh56WvOXzefGUNfW9M8P7770txcbH9i7MOFTvxxBPlgQcesN6Ds633wHoTENWaq3693Ao6d1u/QHv0i6v+TanK+Rc6d3a26eINCffatKam5+jNM9d2JfzLqzfHc/NmZ5u2XVV9ca5ObdrdWEH74m8m1q/+W6xBrf7NatDstT+NQdsD/S6iL02/m6jGaL8a47tETd/l/Ij2Bai/oHtrrGidg640qNUvgkrnclfuodV/THTutNJ/qHR+lffrr/76rL8sa2+P92VSf231tnv0mHpsb7s3T0uvQxr+Rbw6eg76663+46O/7nqP12PpMbVct+t+Hv2H9fTTnf28f1wrf7nXcr2mcWMnQQm/XF34a67q+skNfW9MoHO1NAtqU/3DptdDX/3EuD2uB6y9PuHL4j8P2+N6xk1JL3f048On7r5Oe1U0A7Res1j3jXZNXb8eDXC9L8Xe364uXg+1bqvcg+P93XhtgbZD4T/UecdqiiY6PNGStiXe+YY/l1fuvYbK9G3U9lLPP1xt2t1YQfuyN9qXpqej17zvNaNHu4WNROe06/cWr33w2i8NrufNc3eqJa8N0WC/od8lavou50emfv4AZXoHMFncm5AXIKrqsoPrl2INgMPpF0jvi6ge4/33nX9wlDbwevmjcLqvfsEOVzlb877oftOnO8cOp/+g/d//7X0cLd+2zV2x6Pl6X+69f4RM0dD3JtLOPPNMefDBB5v1H7auZ9xlD2v1Fr0O+db3JttfXNG4mrN+9W8h/Ic2j7Y/4YGvR9sZ729Z2x9th7Q9Cg9wI0GH2If3cuv569+4N7JHz3HNGndjNWpqd2MF7Yu/RaJ+a0P/Rr/+2rnf2FdG0H/bdei8951JafugSWurav+qUlUb0tDvErX5Luc3pn7+AGV6B7DxSeKMn8Qf2HMOup/pP6KV52X6XTTModEvufWlPUnrZ1wtXcbeYWdw1x4u1eX02+xbVd210b1rGaf0PES2fvSYFPz0nfT5xX+laNsq2fja7dJ6yCnS55fP2I/x9s38ZIr92IE3frY7g7Mef9XUC+3H65d37bnyHqf3l91/tL1fh2MnSvcLJtv3G+saytqDZ3r9Nnf7or072vukf986nBNNh/aF9iWSYun7SyyKhvaFz59/mf75M53xQ9xNnyMP+F3+mq8kLrmNBFukuCV7yl+3QAbdPNf+Urz6P5dKYvu+cvAj+ZKY3lvyfnjL3mfLOw/Yt1qu+6179ir7i7P9Bf756+xetMqBgP3FffZdMuSupfbjlHccAP5A+wIAaG6m96Abfx10AM1Le6fC54hmfTldup51j33t4qq07HeMvS2+ZXtJO/wiaX3AqfZ6Qttu9nbt3SrJ3WD3SGm59oi17Huk/cW8dOc2iU9pZz9GtTvsAntd6fbE9n2kRVpP+3H6eD2OHg9AdKJ9AQBEmukdwGRxR63pXKurrqrbXC5EH2+OqPYq6bDP9CPG7zH0tLIW7fedira8OF+Ksiom9IV/udYv0KX5bqKGKuiQ1W+uTrG/yOtQVD1OeTFfoJuSl6WY4e1oCrQvAADsG1ncAVRJv+h2PHGSbH7nbw3KaKxDV3U4qsfr8VLaK+b1aFWlckKp/te+ZX2ZT3O3AohWtC8AgEghizuAqKWJnXT+ZvYX0+s99NPr0fKOoXNKd676QlJ6H2YPL9X5p95c0pyvZu7u8dLtO1d8Zs8VVZpgSi9/xBBUwB9oXwAAkcAc9AaiBx2ILJ2/qUM/cxe85JbUXaeTb7BvdTipDiXtefGj9pfz8F40HWYaTGy5uzdMt3cZc7ssun2QvU172fY1VxVA9KF9AQBgT8ZfZk0vw8BlIhApfr8MUqzTL+a0L43vyCNFxo2zgqBqLn2r1zFv6KUa9bfbLl2c65nrdc2jEe2Lv9G+IJK4zBoiyfTPn3YAm9wJTBZ3AAAAAM0mEIiTsrIidw1+ovWq9Wsysrg3EHPkASC6fPGFyHXXOdngtae8sNBZ9L6W6ZUghg8XmTKlYpk0yX2wa9Agkfvuq9j+0ENOzzwAIPrFxSVJQcEWdw1+ovWq9Yv6I4s7AKBZXXaZyMiR7opLA3Kvudf7V1wh0rats650uPz48SJnnOEWAACiVjCYINu3/+iuwU+0XrV+TUYWdwAAXBp8Dxni3Nf54+G97B06OAG49q5rcK5z1b3rsut89fh4kUMOcR4LAIheZWUFsm3b1+4a/ETrVevXZKZ3AJPFHQDQbAYMEGnZ0gm+581zynRI/Jo1TgCugXnfvk75okUVieTmznWC+ORkJ8gHAEQvnae8bt0H7hr8ROuV/AINY/wQd9PnyAMAam/rVpHSUnelGtu3u3cAAL61ZctHUlBg/aMA39D61Ho1HT3oAAC4tOdce8K1p1yHsitN/ta7txO46/asLKdch8J7veUjRjjz0AsKGnZ5NgCAGdq3v0SWL3/SXYMfaH1qvZqOLO4NxBx5APAPDa516LrSRHGaoV0TwmnwnZkp8tprztB3DdQ1iNfs7rqPBuoawC9Y4DwWABDd0tImyvff/5+7Bj/Q+tR6RcOQxR0A0KyeftpJEBdOA3evudf7mjhOg3SP9rpPn+4E8ACA6JeaOlxatvyZLFhwl1uCaKb1qPWp9Wo60zuAA9YJhgiC6y8+PknGj98sLVqEXQ8IvlBcnGsFBJ2ltNSKDAwVCATk0Ckhdw119fXEgIRC5r5/8fGJVvuyhfbFh5z2pZPVvpibSIf2pWFoXxAp0dC+pKS0kYED11rnmC2LFw+WM8/8TDp0OMzdimiTmfmVvPrq0TJ48GKrbUmTZct6SX4+CWXqiyzuDZSSkiZZWd+5a/ATrVetXyBSEhJa0774lNar1i8QKbQv/hUN7UvfvoOtAO47SUzsKz16PCwffTSRzN9RSutN60/rUetT61XrF/VHFvcGGjq0n6xZ86q7Bj/RetX6BSKlQ4dU2hef0nrV+gUihfbFv6KhfTnrrBNl167Z9v327SdYgd2x8s47F9rriC5ab1p/Wo9K61Xr12SmdwCTxb2Bbr31Flm8+HF7OBH8Q+tT61XrF4iU22//E+2LD3nti9YvECm0L/4ULe3L+PGXSlbWVCkrcz5/3bpNlqKidHnzzbPoSY8SWk9aX1pvWn9OWa5dr1q/JjO9AzhgLSGT50jpDwim/4hw0EHDpbBwsBx/PJeK8IsPP7xckpIWy/ffz3NLzMQc0YYxfY6o6tixp7RtewLti49o+5Kb+4Fs3brOLTET7UvD0L4gEqKlfVFXXvk7mT073/ocTnVLRDZsmGQFfJ/IccdNYU66wXTOuQ5r155zLzhXW7dOkDFjUuSxx/7hlphJ/30zuX0mi3sj0CBu8+Z3ZMGCu90SRDOtR61P04NzxAb9krV+/eu0Lz6h9aj1GQ1fnuF/tC/+Em3tiwZxrVsvlE2bKj5/Guy1bj3RTjhGdnczab1o/Wg9hQfnWo9an6YH58r0LO5BrjPeOD7++HVZtuwx+5dLhotFJ603rT+tR61PwBSvvvqM/PDDQ7QvUcxrX7QetT4BU9C+RL9obl/eeed/0q6d/qgwYfdwd53LrNnA165dLtOn95DvvrtfCgq22tsQGfr+az1ofWi9aP14c8613rT+tB61PqOB6R3AAaPHt1uiYYh7OB3uvnjxQuuD+1vp3ftMSU8fyiVMDKb/qGm2U02oonO2Bg8+MKp6zpNSWsrg+zZLMLGlW4LaKi/aKYtv6iyF+TvdEvPpcNTs7EzalyhRuX1JS+sQVT3ntC/1R/uCphbt7UtlOtx92rRp1udugqSmjpGUlKESF9dWdu2aZ30up8i2bc9Ip07HSc+eJ1iB4aHSpk1/SU7uZO2T6B4BjUXnlhcUbJHt23+03vevZd26D2TLlo+s9/0S63M20b7OuQblmq1dE8LpnPMrrrgiKnrOo4XxAbrpcwSq8tZbb8k999wr3323wvrwZtsfdJhJG3a9lJpma9eEcKeeeqq7JTr07j9EUsfNkOTuB7klqK2Cn76XXTPGyZofF7kl0eGJJ56Qu+66WzIzd0lJSZ7VvhS7W2CauLgW9qWONJuyJmz61a9+5W6JDrQv9Uf7gqYW7e1LVZYtWybTp/9XXnnlPVm1arEVJOa5Wyro97a4uGQpLy+xPp+FVoxQ5m5BYwkE4qz3OEmCwQTrPS6oMo5JTm5tX0pNs7VrQriBAwe6W6KD6R3AgYyMjJDRJxiFATrQXM6/+OcyP26ktD/GGWaE2tv26VQ5vGyOvPDsU24JIqmwsFCefPJJufxyTdCY5JYikmhf6o/2BQDMZXySONPTzDNHHqjeOWNPldIlr7lrqAt93/T9gxnefPNN+f777+1bmIH2pf5oXwAA9WX8ZdYA7Fub9I7S/ar3GIZaBzr89KdHT5TtWSSdMYH2nt9www1SUlIiCQkJ8sADD9CLbgjal7qjfQEAs5k+xJ0s7kCU++Mfrpe89+5x11Ab+n7p+wYzaK+590Ox3tKLbg7al7qjfQEAs5kcnCuyuAM+MHjYcMk/8FfMFa0FnRuasvAJWfwt17k3QXjvuYdedLPQvtQe7QsAoKGC7q2xTJ8jD5jgmWlTZPP/rpfcb19xS1AVfX/0fdL3C2YI7z330ItuFtqX2qF9AYDoYHrnb5DeaSD6HXzwwTLr1ZflpycvtXtwsDd9X/T90fdJ3y9Envaev/vuu3Y21ZSUFLssNTXVXtdy3Y7Io32pGe0LAEQP0zuAyeIO+MRJJ50kc+d8ag+v3PLkhXaiIjgJm/T90PdF3x99n2CGTz/9VILBoJxzzjkyefJku+zBBx+Us88+2y7X7TAD7UvVaF8AAI2NLO6AD/31r3+Vv/ztQWnVZ7jE73+GpPY5UhI79JVgYkt3D/8qL9opRZmrZNfqL+xLHe1YPc9O2HTzzTe7e8BUEydOlClTGB5sOtoX2hcAiGam5zgLZGRkhBjmDvjTjBkz5KVZb8n8+V/J5g1rpahgl7vFvxKTU6Vzt15y+OGH2dchHjdunLsFpiNAjy60L7QvAIDGRxZ3AIARCNABAECsI4s7AAAAACAmmN75SxZ3AAAAAEBMIIt7A5HFHQAAAAAQC4wf4k4PPwAAAACgMZjeARykhxoAAAAAEAuYg95A9KADAAAAAGIBWdwBAAAAADGBHnQAAAAAAAxAFvcGYo48AAAAACAWkMUdAAAAABATyOIOAAAAAIABmIPeQPSgAwAAAABiAVncAQAAAAAxgR50AAAAAAAMQBb3BmKOPAAAAAAgFpDFHQAAAAAQE8jiDgAAAACAAZiD3kD0oAMAAAAAYkEgZHHvGykQCIjhpwgAqEZRUZEsXLhQli5dKitWrJDly9fK+vUbJTNzq+TmZkt+/g4pLMyX0tISq60vl7i4eElISJSkpFRp1aqNpKWlS6dOnaRXr27Sv39v6devn+y///4yaNAg9xkAAABqTzuATe4EDmRkZISMPkECdACIGllZWfL+++9byyfy6adzrcD8G+nWbai0bbu/JCb2l5Yte0lqajdJTu5kradJixatJT4+RYLBBOvR2t6XSVlZkRWw77KC+1xrybKC+M2ya9dPUlCwxrq/XLKzl0he3iY58MDD5LjjjrSWY2XUqFHW8RKdkwAAAKiG6fFlwFqM7kQ3/RcOAIh1mZmZ8vzzz8uzz74iX301R/bb7yQrID9OOnc+Sjp0ONz6hzDO3bPxFBdvt553vmzZ8rnk5Hwkq1d/IieccJqMG3eWnHfeedK6dWt3TwAAgAoE6AAAX/rwww/lkUeekFdffUH23/8i6dr1XOnVa6z1D1/zXyCkpGSHrF07WzZvfkmWLn1ZLrjgUvntb38hxx57rLsHAAAAQ9wBAD4za9Ysuffef8i6dVukd+8JMnDgFZKQ0MrdGnmFhVmyfPlTsmbNv6RPn27yxz9eJ2PHjnW3AgAAmMv4JHEMcQcAM3zzzTdy8813yqJFq6yg/Gbp1+9id4u5VqyYIUuX3iMHHzxI7r//Lhk8eLC7BQAAwDzNPw6xju688073HgAgUu677z45/PAjZMeOn8npp38fFcG56tdvnIwZ84NkZh4uBx54kDzyyCPuFgAAEItM7/wlizsAoFp6mbRx434uixZlyyGH/FNat+7rbok+2dk/yFdfTZCf/ewAefLJqW4pAACIJSSJayCGuANAZOzatUtOPvkMK0gfLIce+n9uafSbO3e89OxZILNnv+iWAACAWGF6gG78EHeCcwCIjPPOu1hKS4f5KjhXI0ZMl3XrWsoll/zCLQEAALEiIyPDvWemoOknCABofnfffbds2BCQYcP+7pb4y4gRT8rcucvln//8p1sCAABigfFz0I0e325hiDsANK+NGzdKjx495IILfozqOec12bp1nnz00RjZtGmdJCUluaUAAACRQxZ3AMAepk2bJoce+htfB+eqY8fh0r37ifLvf//bLQEAAH5neudvkN5pAEC4V1550wpez3HX/K1r1wtk5sxZ7hoAAPA70zuAg6afIHPkAaB5LVnyg7Rvf4i75m8dOx4p33+/wF0DAACILLK4AwB207Qku3Ztl8TEdm6Jv6WkdJbRo6901wAAgN+RxR0AEDX02qCqqCjHvvU7fZ0zZpDrBACAWMEc9AaiBx0Amt+2bbEx7DtWXicAAIgOZHEHAOxl9eqX3Hv+FiuvEwAAOOhBBwBEnSVL/il5eavcNX/S16evEwAAxA6yuDcQc+QBoPkdeuid8sUX17tr/qSvT18nAACAKcjiDgDYyyGH/MnO6P7FF793S/xFX5e+Pn2dAAAgdpDFHQAQlUaNela2bftW5sy5xi3xB309+rr09QEAgNjCHPQGogcdACIjPj5VRo9+QwoLM+WNN06O+jnpev76OvT16OvS1wcAAGASsrgDAKoVF5coo0Y9J127jpKZMwfJwoWT3S3RRc9bz19fh74efV0AACD20IMOAIh6w4bdJGed9aVs2vSxvPjiQbJiRXQMD9fz1PPV89bz19cBAABil+kdwAFrCWmiHFPpDwj8iAAAzScQCMiECdX/u7B27SxZuPAfUlCwRfbff4IMHHiFJCS0crdGXknJDlm2bJosWTJVkpM7yYEH/k569Rrrbt3b1KkBO2EcAADwP/2eY/K/+8YH6ACA5lVTgO7ZuPFDWbr0CVm16gXZb7+LpE+fc+1AOBBo/tlToVC5/cPB6tX/k5Urn5O+fc+XQYN+JV27Hu/uUT0CdAAAYofpHcCBjIyMED3UAABPbQN0jyZdW7nyeVmz5hXZvHmOdO9+knTpcpx07nyUdOhwuHW8OHfPxhMKlUlm5nzr+T6XTZs+kp9+etd6vpHSu/dZst9+F0pSUgd3z5oRoAMAAFMETO8+Z4g7ADSvugbo4QoLs2TjxvetoPkT2bJlrmzb9o2kpw+Vdu32l9at+0urVr0kNbWbPfQ8MTFNWrRoLfHxKRIMJliPtgd1SXl5iZSW5ktxcZ4UFWXbQ+l37dogO3aslby8HyUnZ4lkZX0n7dsfLJ06jZAuXY61k78lJaXb51BXBOgAAMAUxgfops8RAAC/aUiAXllZWZFkZy+U3NylVnC9wg6y8/M3WkH3Vjv41vniGoxrUK7D1HV4vAbrGrTrvHYN4pOTO0pKSlc7uG/dup+0bTtI0tIObLRM7AToAADEDoa4NxABOgA0r8YM0OtGn1N70ZsXAToAALHD9PgyaHqa+YyMDPceAMDfmj84BwAAMEnzp9qtI+afAwAAAAAag+kdwEF6qAEAAAAAscD0DuCg6SdIDzoAAAAAIBYYP8Td9DnyAAAAAIDoQA86AAAAAAAGML0DmCzuAAAAAAAYgCzuAAAAAICYQBZ3AAAAAAAMwBz0BqIHHQAAAAAQC8jiDgAAAACICaZ3AAcyMjJCJp9kIBCQUCjkrgEAmpq2uxMmNKzdPfJIkXHjRJKS3ALX0qUikye7K/swaJDIRReJvPWWyBdfuIVNZOpU/p0BACBWmB5fksUdANBkNm0SmTjRWebMcQLvSZPcjfugwXm7du4KAABAjAhYS4ieAwCApzF70HNydCiZW2jR+xp4z5jh9IzrepcuzrbCQqd8xAgnkFelpSJvv+3cP+UUkfh4535te+Jrgx50AABih44eN3kEOVncAQDNZvt2J8ju2FHksstEkpOdQPv1153yU0911rXnXQP26dNFli8XGTlS5MsvnZ543davn8gZZ7gHBQAAqCXT56CTxR0AEBFPPy1y003OcPbTT6/oHa9Me8t1v9xckUcfrehxBwAA8BuyuAMAIkLnok+Z4tyfNs3pMa+KDpd/6CFniLsOd9eAHQAAoD7oQQcAwNWmjTOvPC5OpHNnp1f8uefcjdUYMMDJBq9D3F97zS0EAACoB9M7gMniDgBoFjpnvEMHkTVrRF5+WaSgwAm827Z1EsNVviSbR4N4DerT053e9N693Q0AAAA+Y/wQd3r4ASB66XxxHcaui84zX7GiIvv6ggXOvPMrrnCSvukQd00apxncV61yAnbdpgF8ZqZTrutlZc7jtBwAAKAuTO8ADlgnGCIIBgB4GuMya9GEy6wBAABTkMUdAAAAAAADkMUdAAAAABATTO8AJos7AGAP48bFVnLOWHu9AADEMtM7gAPWEjJ57p3+gMCPCADQfFq2bCvnnbdaEhPbuSX+VVSUIy++2Ed27sx1SwAAgJ9prh2T41+yuAMA9rD//gfItm0L3DV/09eprxcAAMQG07O4B7nOOAAg3FlnjZatW19y1/xNX6e+XgAAEBtM7wAOGD2+3cIQdwBoXhs3bpQePXrIBRf8KK1b93VL/Scvb5XMnNlf1q9fL127dnVLAQAAIocs7gCAPWiwqm3vokXXuyX+pK9PXyfBOQAAscP4HvSMjIyQySdp+iR+APCr0aPPlOzsfjJs2N/dEv/49tvfS1raCnnzzVfdEgAAEAuMTxJneg81c+QBIDJefPFZiY//Vr7++hq3xB/09ejr0tcHAABgErK4AwCqlJqaKh988Ib07JkpH310sj1nO5rp+evr0Nejr0tfHwAAiC1kcQcARK3ExER56aXn5Be/GCUvvDBIFi6c7G6JLnreev76OvT16OsCAACxx/QO4KDpJ0gPOgBE3k033STz538prVp9LK+/fpCsWBEdw8P1PPV89bz1/PV1AAAAmMr4y6yRJA4AzDJr1iy5995/yLp1W6R37wkycOAVkpDQyt0aeSUlO2TZsmmyZs1U6dmzk9xyy+9k7Nix7lYAABDLtAPY5E5gsrgDAOrlww8/lEceeUJeffUF2X//i6Rr13OlV6+xVrvd/OlNQqFyWbt2lmzc+D9ZsuQ5OfPM8+Xqq38lxx9/vLsHAACA+fFlwFqM7kQ3/RcOAIh1mZmZ8vzzz8uzz74iX301R/bb7yRp2/Y46dz5KOnQ4XDrH8I4d8/GEwqVWc87XzZv/lxycz+SlSvflcMOGykXX3yWXHjhhdbzdnD3BAAAqECADgCIGVlZWfL+++9byyfy6adzZenSb6Rbt6FWwL6/JCb2l5Yte0lqajdJTu5kradJixatJT4+RYLBBOvR9j9JUl5eIqWl+VJcnCdFRdlSULBFdu3aIDt3rrXWf7QC8iWyYcN3MmjQwXLMMSNk1KhjrWWUpKen2+cAAABQHYa4AwBiVlFRkSxcuNAK1JfKihUrZPnytbJ+/UbJzNxqBdrZkp+/QwoL862AvER0mLoOj4+PT5CkpBRJSWllBfZp0qFDR+nRo6sMGNBL+vXrZwXmg+TAAw8kEzsAAPAd45PEMcQdAGKD/nOkw84AAABiVfNn8qmjO++8070HAPAzgnMAANDUTO/8Nf466AAAAAAANAbTO4CDpp9gRkaGew8AAAAAAP8yfog7PfwAAAAAgMZgegdwkB5qAAAAAEAsYA56A9GDDgAAAACIBWRxBwAAAADEBHrQAQAAAAAwAFncG4g58gAAAACAWEAWdwAAAABATCCLOwAAAAAABmAOegPRgw4AAAAAiAVkcQcAAAAAxAR60AEAAAAAMABZ3BuIOfIAAAAAgFhAFncAAAAAQEwgizsAAAAAAAZgDnoD0YMOAAAAAIgFxg9x/+ijjyQQCOwRqOt9LaOcckW5g3IH5Q7KHZQ7KHdQ7qDcQbmDcgfljlgrN1EgIyMjZPpJAgAAAADgdwFrCVmcNQAAAAAAEBHGD3EHAAAAACAWkMUdAAAAAAADBBjfDgAAAABA5DHEHQAAAAAAA8RZyx3HHXecswYAAAAAACKCLO4AAAAAABiAIe4AAAAAABiALO4AAAAAABiALO4AAAAAABiAIe4AAAAAABiALO4AAAAAABiALO4AAAAAABiAIe4AAAAAABiALO4AAAAAABiALO4AAAAAABiAIe4AAAAAABiALO4AAAAAABiALO4AAAAAABiAIe4AAAAAABiALO4AAAAAABiALO4AAAAAABiAIe4AAAAAABiALO4AAAAAABiALO4AAAAAABiAIe4AAAAAABiALO4AAAAAABiALO4AAAAAABiAIe4AAAAAABiALO4AAAAAABiALO4AAAAAABiAIe4AAAAAABiALO4AAAAAABiALO4AAAAAABiAIe4AAAAAABiALO4AAAAAABiALO4AAAAAABiAIe4AAAAAAEScyP8DM/CSZCP2fIQAAAAASUVORK5CYII=;" vertex="1" parent="1">
          <mxGeometry x="40" y="370" width="253.67" height="146.62" as="geometry" />
        </mxCell>
        <mxCell id="H-xdJEBKWoVuhTq_jzJ3-7" value="&lt;font style=&quot;font-size: 14px;&quot;&gt;&lt;b&gt;quantize_linear&lt;/b&gt;&lt;/font&gt;" style="ellipse;whiteSpace=wrap;html=1;fillColor=#fff2cc;strokeColor=#d6b656;" vertex="1" parent="1">
          <mxGeometry x="320" y="120" width="120" height="80" as="geometry" />
        </mxCell>
        <mxCell id="H-xdJEBKWoVuhTq_jzJ3-8" value="&lt;font style=&quot;font-size: 14px;&quot;&gt;&lt;b&gt;dequantize_linear&lt;/b&gt;&lt;/font&gt;" style="ellipse;whiteSpace=wrap;html=1;fillColor=#fff2cc;strokeColor=#d6b656;" vertex="1" parent="1">
          <mxGeometry x="320" y="340" width="120" height="80" as="geometry" />
        </mxCell>
        <mxCell id="H-xdJEBKWoVuhTq_jzJ3-10" value="Multiply" style="ellipse;whiteSpace=wrap;html=1;fillColor=none;" vertex="1" parent="1">
          <mxGeometry x="570" y="20" width="120" height="80" as="geometry" />
        </mxCell>
        <mxCell id="H-xdJEBKWoVuhTq_jzJ3-11" value="Divide" style="ellipse;whiteSpace=wrap;html=1;fillColor=none;" vertex="1" parent="1">
          <mxGeometry x="700" y="60" width="120" height="80" as="geometry" />
        </mxCell>
        <mxCell id="H-xdJEBKWoVuhTq_jzJ3-12" value="Round" style="ellipse;whiteSpace=wrap;html=1;fillColor=none;" vertex="1" parent="1">
          <mxGeometry x="530" y="130" width="120" height="80" as="geometry" />
        </mxCell>
        <mxCell id="H-xdJEBKWoVuhTq_jzJ3-13" value="Clamp" style="ellipse;whiteSpace=wrap;html=1;fillColor=none;" vertex="1" parent="1">
          <mxGeometry x="670" y="160" width="120" height="80" as="geometry" />
        </mxCell>
        <mxCell id="H-xdJEBKWoVuhTq_jzJ3-16" value="Multiply" style="ellipse;whiteSpace=wrap;html=1;fillColor=none;" vertex="1" parent="1">
          <mxGeometry x="540" y="290" width="120" height="80" as="geometry" />
        </mxCell>
        <mxCell id="H-xdJEBKWoVuhTq_jzJ3-17" value="Convert" style="ellipse;whiteSpace=wrap;html=1;fillColor=none;" vertex="1" parent="1">
          <mxGeometry x="700" y="310" width="120" height="80" as="geometry" />
        </mxCell>
        <mxCell id="H-xdJEBKWoVuhTq_jzJ3-18" value="Reshape" style="ellipse;whiteSpace=wrap;html=1;fillColor=none;" vertex="1" parent="1">
          <mxGeometry x="590" y="380" width="120" height="80" as="geometry" />
        </mxCell>
        <mxCell id="H-xdJEBKWoVuhTq_jzJ3-20" value="" style="shape=curlyBracket;whiteSpace=wrap;html=1;rounded=1;labelPosition=left;verticalLabelPosition=middle;align=right;verticalAlign=middle;fillColor=none;" vertex="1" parent="1">
          <mxGeometry x="290" y="160" width="20" height="230" as="geometry" />
        </mxCell>
        <mxCell id="H-xdJEBKWoVuhTq_jzJ3-21" value="Multiply" style="ellipse;whiteSpace=wrap;html=1;fillColor=none;" vertex="1" parent="1">
          <mxGeometry x="540" y="290" width="120" height="80" as="geometry" />
        </mxCell>
        <mxCell id="H-xdJEBKWoVuhTq_jzJ3-22" value="Reshape" style="ellipse;whiteSpace=wrap;html=1;fillColor=none;" vertex="1" parent="1">
          <mxGeometry x="590" y="380" width="120" height="80" as="geometry" />
        </mxCell>
        <mxCell id="H-xdJEBKWoVuhTq_jzJ3-23" value="&lt;b&gt;&lt;font color=&quot;#ffffff&quot; style=&quot;font-size: 14px;&quot;&gt;Convert&lt;/font&gt;&lt;/b&gt;" style="ellipse;whiteSpace=wrap;html=1;fillColor=#6666FF;" vertex="1" parent="1">
          <mxGeometry x="700" y="310" width="120" height="80" as="geometry" />
        </mxCell>
        <mxCell id="H-xdJEBKWoVuhTq_jzJ3-24" value="Clamp" style="ellipse;whiteSpace=wrap;html=1;fillColor=none;" vertex="1" parent="1">
          <mxGeometry x="670" y="160" width="120" height="80" as="geometry" />
        </mxCell>
        <mxCell id="H-xdJEBKWoVuhTq_jzJ3-25" value="Round" style="ellipse;whiteSpace=wrap;html=1;fillColor=none;" vertex="1" parent="1">
          <mxGeometry x="530" y="130" width="120" height="80" as="geometry" />
        </mxCell>
        <mxCell id="H-xdJEBKWoVuhTq_jzJ3-26" value="Multiply" style="ellipse;whiteSpace=wrap;html=1;fillColor=none;" vertex="1" parent="1">
          <mxGeometry x="570" y="20" width="120" height="80" as="geometry" />
        </mxCell>
        <mxCell id="H-xdJEBKWoVuhTq_jzJ3-27" value="Round" style="ellipse;whiteSpace=wrap;html=1;fillColor=none;" vertex="1" parent="1">
          <mxGeometry x="530" y="130" width="120" height="80" as="geometry" />
        </mxCell>
        <mxCell id="H-xdJEBKWoVuhTq_jzJ3-28" value="Clamp" style="ellipse;whiteSpace=wrap;html=1;fillColor=none;" vertex="1" parent="1">
          <mxGeometry x="670" y="160" width="120" height="80" as="geometry" />
        </mxCell>
        <mxCell id="H-xdJEBKWoVuhTq_jzJ3-29" value="Divide" style="ellipse;whiteSpace=wrap;html=1;fillColor=none;" vertex="1" parent="1">
          <mxGeometry x="700" y="60" width="120" height="80" as="geometry" />
        </mxCell>
        <mxCell id="H-xdJEBKWoVuhTq_jzJ3-30" value="Multiply" style="ellipse;whiteSpace=wrap;html=1;fillColor=none;" vertex="1" parent="1">
          <mxGeometry x="570" y="20" width="120" height="80" as="geometry" />
        </mxCell>
        <mxCell id="H-xdJEBKWoVuhTq_jzJ3-31" value="Multiply" style="ellipse;whiteSpace=wrap;html=1;fillColor=none;" vertex="1" parent="1">
          <mxGeometry x="540" y="290" width="120" height="80" as="geometry" />
        </mxCell>
        <mxCell id="H-xdJEBKWoVuhTq_jzJ3-32" value="&lt;b&gt;&lt;font color=&quot;#ffffff&quot; style=&quot;font-size: 14px;&quot;&gt;Round&lt;/font&gt;&lt;/b&gt;" style="ellipse;whiteSpace=wrap;html=1;fillColor=#6666FF;" vertex="1" parent="1">
          <mxGeometry x="530" y="130" width="120" height="80" as="geometry" />
        </mxCell>
        <mxCell id="H-xdJEBKWoVuhTq_jzJ3-33" value="&lt;b&gt;&lt;font color=&quot;#ffffff&quot; style=&quot;font-size: 14px;&quot;&gt;Clamp&lt;/font&gt;&lt;/b&gt;" style="ellipse;whiteSpace=wrap;html=1;fillColor=#6666FF;" vertex="1" parent="1">
          <mxGeometry x="670" y="160" width="120" height="80" as="geometry" />
        </mxCell>
        <mxCell id="H-xdJEBKWoVuhTq_jzJ3-34" value="&lt;b&gt;&lt;font style=&quot;font-size: 14px;&quot; color=&quot;#ffffff&quot;&gt;Divide&lt;/font&gt;&lt;/b&gt;" style="ellipse;whiteSpace=wrap;html=1;fillColor=#6666FF;" vertex="1" parent="1">
          <mxGeometry x="700" y="60" width="120" height="80" as="geometry" />
        </mxCell>
        <mxCell id="H-xdJEBKWoVuhTq_jzJ3-35" value="&lt;font color=&quot;#ffffff&quot; style=&quot;font-size: 14px;&quot;&gt;&lt;b&gt;Multiply&lt;/b&gt;&lt;/font&gt;" style="ellipse;whiteSpace=wrap;html=1;fillColor=#6666FF;" vertex="1" parent="1">
          <mxGeometry x="570" y="20" width="120" height="80" as="geometry" />
        </mxCell>
        <mxCell id="H-xdJEBKWoVuhTq_jzJ3-36" value="&lt;font color=&quot;#ffffff&quot; style=&quot;font-size: 14px;&quot;&gt;&lt;b&gt;Multiply&lt;/b&gt;&lt;/font&gt;" style="ellipse;whiteSpace=wrap;html=1;fillColor=#6666FF;" vertex="1" parent="1">
          <mxGeometry x="540" y="290" width="120" height="80" as="geometry" />
        </mxCell>
        <mxCell id="H-xdJEBKWoVuhTq_jzJ3-37" value="&lt;font style=&quot;font-size: 14px;&quot; color=&quot;#ffffff&quot;&gt;&lt;b&gt;Reshape&lt;/b&gt;&lt;/font&gt;" style="ellipse;whiteSpace=wrap;html=1;fillColor=#6666FF;" vertex="1" parent="1">
          <mxGeometry x="590" y="380" width="120" height="80" as="geometry" />
        </mxCell>
        <mxCell id="H-xdJEBKWoVuhTq_jzJ3-38" value="" style="endArrow=classic;html=1;rounded=0;fontSize=14;fontColor=#FFFFFF;entryX=0.1;entryY=0.5;entryDx=0;entryDy=0;entryPerimeter=0;" edge="1" parent="1" target="H-xdJEBKWoVuhTq_jzJ3-20">
          <mxGeometry width="50" height="50" relative="1" as="geometry">
            <mxPoint x="170" y="400" as="sourcePoint" />
            <mxPoint x="220" y="350" as="targetPoint" />
          </mxGeometry>
        </mxCell>
        <mxCell id="H-xdJEBKWoVuhTq_jzJ3-39" value="" style="shape=flexArrow;endArrow=classic;html=1;rounded=0;fontSize=14;fontColor=#FFFFFF;" edge="1" parent="1">
          <mxGeometry width="50" height="50" relative="1" as="geometry">
            <mxPoint x="450" y="159" as="sourcePoint" />
            <mxPoint x="510" y="159" as="targetPoint" />
          </mxGeometry>
        </mxCell>
        <mxCell id="H-xdJEBKWoVuhTq_jzJ3-40" value="" style="shape=flexArrow;endArrow=classic;html=1;rounded=0;fontSize=14;fontColor=#FFFFFF;" edge="1" parent="1">
          <mxGeometry width="50" height="50" relative="1" as="geometry">
            <mxPoint x="450" y="380" as="sourcePoint" />
            <mxPoint x="510" y="380" as="targetPoint" />
          </mxGeometry>
        </mxCell>
        <mxCell id="H-xdJEBKWoVuhTq_jzJ3-43" value="&lt;b&gt;&lt;font color=&quot;#ffffff&quot; style=&quot;font-size: 14px;&quot;&gt;FakeQuantize&lt;/font&gt;&lt;/b&gt;" style="ellipse;whiteSpace=wrap;html=1;fillColor=#6666FF;" vertex="1" parent="1">
          <mxGeometry x="980" y="210" width="120" height="80" as="geometry" />
        </mxCell>
        <mxCell id="H-xdJEBKWoVuhTq_jzJ3-44" value="" style="rounded=1;whiteSpace=wrap;html=1;strokeColor=#6666FF;fontSize=14;fontColor=#FFFFFF;fillColor=none;" vertex="1" parent="1">
          <mxGeometry x="960" y="200" width="160" height="105" as="geometry" />
        </mxCell>
        <mxCell id="H-xdJEBKWoVuhTq_jzJ3-46" value="" style="shape=curlyBracket;whiteSpace=wrap;html=1;rounded=1;flipH=1;labelPosition=right;verticalLabelPosition=middle;align=left;verticalAlign=middle;strokeColor=#6666FF;fontSize=14;fontColor=#FFFFFF;fillColor=none;" vertex="1" parent="1">
          <mxGeometry x="850" y="95" width="20" height="310" as="geometry" />
        </mxCell>
        <mxCell id="H-xdJEBKWoVuhTq_jzJ3-47" value="" style="shape=flexArrow;endArrow=classic;html=1;rounded=0;fontSize=14;fontColor=#FFFFFF;" edge="1" parent="1">
          <mxGeometry width="50" height="50" relative="1" as="geometry">
            <mxPoint x="880" y="250" as="sourcePoint" />
            <mxPoint x="940" y="250" as="targetPoint" />
          </mxGeometry>
        </mxCell>
      </root>
    </mxGraphModel>
  </diagram>
</mxfile>
